<svg xmlns="http://www.w3.org/2000/svg" width="302" height="445" version="1.1">
    <polygon points="1,50 1,25 301,25 301,50"
        style="fill:rgb(235,235,235);stroke:rgb(71,175,80);stroke-width:1" />
    <polygon points="1,25 1,1 301,1 301,25"
        style="fill:rgb(71,175,80);;stroke:rgb(71,175,80);stroke-width:1" />
    <rect width="300" height="395" x="1" y="50"
        style="fill:rgb(255,255,255);stroke-width:1;stroke:rgb(71,175,80)" />
    <g transform="scale(0.38,0.48)">
        <g transform="translate(120,0)">
            <g transform="scale(1,1)">

                <path fill="#000"
                    d=" M 384.31 213.41 C 395.99 206.49 411.69 206.90 423.13 214.21 C 439.26 216.87 447.34 233.59 462.14 239.10 C 463.55 248.57 465.39 258.14 464.52 267.76 C 463.63 270.72 462.00 273.57 459.69 275.65 C 456.51 277.54 452.74 278.19 449.31 279.49 C 447.08 276.72 445.06 273.77 442.59 271.23 C 439.10 271.15 436.22 273.47 433.22 274.92 C 427.72 269.60 420.90 265.18 413.05 264.72 C 400.54 261.52 387.90 265.22 375.76 268.24 C 370.64 269.10 365.49 269.71 360.36 270.45 C 355.86 271.29 351.83 275.10 347.09 273.80 C 343.26 273.26 339.20 271.36 335.53 273.27 C 329.47 275.45 323.97 281.44 317.01 278.64 C 317.95 274.79 317.82 269.32 321.86 267.04 C 324.93 264.49 329.75 263.07 330.93 258.93 C 330.69 255.44 327.17 252.81 323.88 252.25 C 318.01 251.92 312.29 253.77 306.79 255.56 C 297.93 258.27 288.40 257.38 279.59 260.18 C 270.37 262.53 260.75 261.44 251.39 262.65 C 242.65 264.46 234.05 267.40 225.04 267.63 C 219.14 266.57 215.67 271.88 210.67 273.56 C 198.28 277.16 185.20 278.29 173.17 283.16 C 167.60 285.31 161.58 285.99 155.99 288.05 C 152.17 289.54 150.04 293.36 146.52 295.31 C 138.49 299.52 130.43 303.81 123.08 309.16 C 116.58 314.62 108.17 317.53 99.95 319.14 C 89.37 316.84 78.39 313.44 70.52 305.60 C 67.85 298.74 65.10 291.77 63.62 284.53 C 62.30 281.51 63.52 278.68 64.60 275.96 C 66.29 271.71 66.18 266.83 69.05 263.07 C 70.90 260.79 73.52 259.50 76.09 258.25 C 77.65 263.52 79.95 268.54 82.68 273.31 C 89.04 271.58 95.42 269.73 102.04 269.36 C 116.09 268.53 129.50 264.10 142.68 259.51 C 151.30 256.24 160.94 256.65 169.33 252.69 C 177.76 249.65 186.73 248.33 195.10 245.13 C 206.84 240.42 219.30 237.36 231.96 236.68 C 248.72 235.30 264.78 229.88 281.46 228.09 C 291.65 228.65 302.45 228.78 311.89 224.34 C 320.91 219.82 330.98 218.02 340.90 216.68 C 348.88 215.71 356.58 219.98 364.54 219.28 C 371.15 217.51 378.21 216.71 384.31 213.41 Z" />
                <path fill="#000"
                    d=" M 305.89 281.29 C 307.64 281.30 310.02 279.78 311.39 281.24 C 311.34 282.88 310.99 284.49 310.71 286.11 C 309.12 286.08 307.55 286.05 305.97 286.03 C 305.94 284.45 305.91 282.87 305.89 281.29 Z" />
            </g>
        </g>
    </g>
    <g transform="scale(0.55,0.55)">
        <g transform="translate(0,250)">
            <g transform="translate(0,0)">
                <g transform="translate(0,0) scale(1,1)">
                    <g
                        transform="scale(2.9464285714285716,2.9464285714285716) translate(43.099999999999994,19.599999999999994)">
                        <g transform="translate(0.000000,140.000000) scale(0.100000,-0.100000)"
                            fill="#db2828" stroke="none">
                            <path
                                d="M540 1357 c0 -24 -13 -83 -30 -130 -16 -48 -30 -93 -30 -100 0 -7
        -21 -19 -47 -25 -26 -7 -61 -19 -78 -27 -16 -7 -70 -31 -120 -53 -49 -22 -110
        -43 -134 -47 l-44 -7 24 -19 c32 -25 143 -69 173 -69 13 0 29 7 37 16 15 18
        69 48 75 41 3 -2 -16 -21 -42 -42 -53 -44 -43 -66 15 -33 l36 20 -40 -44 c-22
        -24 -45 -52 -50 -62 -10 -18 -14 -17 -82 7 -39 14 -73 23 -77 20 -3 -3 8 -24
        24 -47 31 -44 52 -109 46 -143 -3 -11 2 -33 10 -48 17 -32 10 -47 -19 -43 -57
        7 -53 -41 4 -61 49 -17 91 -13 153 14 31 14 59 25 61 25 3 0 5 -11 5 -25 0
        -14 -6 -25 -12 -25 -7 0 -57 -22 -110 -49 l-97 -49 -22 24 c-27 29 -44 31 -29
        5 21 -40 11 -55 -61 -98 -65 -38 -69 -42 -50 -52 11 -7 45 -13 76 -14 53 -2
        55 -3 57 -32 1 -16 1 -39 0 -50 -1 -34 19 -75 50 -96 16 -12 31 -20 32 -18 14
        16 24 49 21 65 -2 10 -6 48 -9 84 -2 36 -7 72 -11 81 -5 12 15 31 75 74 45 31
        84 55 86 52 11 -10 -10 -67 -27 -72 -25 -8 -24 -25 1 -25 11 0 20 -5 20 -11 0
        -5 -10 -9 -22 -7 -20 3 -23 -1 -20 -27 4 -47 23 -85 41 -85 9 0 40 29 68 63
        29 34 71 84 93 110 39 47 40 48 49 25 12 -32 79 -91 96 -84 7 2 15 15 17 28 4
        23 -17 92 -35 116 -13 17 -73 42 -99 42 -20 0 -20 -1 -3 -26 20 -30 20 -30
        -61 -82 l-62 -40 -5 46 c-3 26 -3 50 0 55 18 29 236 116 313 124 74 7 85 -6
        84 -101 0 -69 -6 -96 -46 -204 l-20 -54 -63 6 c-34 3 -75 10 -90 16 l-28 11
        18 -28 c10 -16 34 -48 54 -73 58 -75 58 -75 37 -67 -16 7 -17 5 -6 -9 18 -21
        76 -10 108 19 64 59 112 213 112 356 0 69 -4 85 -27 120 -22 34 -33 41 -70 47
        -65 10 -139 -3 -264 -46 -63 -21 -115 -37 -117 -36 -1 2 2 15 7 29 7 17 20 27
        43 32 53 11 80 33 72 58 -3 12 -13 28 -22 35 -14 11 -14 12 2 12 22 0 226 207
        226 229 0 9 -4 21 -8 26 -10 14 -60 48 -100 69 -41 21 -83 11 -197 -47 -44
        -23 -83 -43 -86 -45 -3 -1 30 33 72 77 76 78 80 81 165 106 49 14 98 25 110
        25 17 0 21 5 17 20 -9 33 -31 43 -92 43 l-58 0 15 29 c7 16 15 34 16 41 1 7
        10 30 20 52 9 22 16 48 14 59 -3 23 -72 66 -105 66 -20 0 -23 -5 -23 -43z m98
        -484 c-12 -86 -109 -225 -163 -236 -20 -3 -25 -1 -21 10 3 8 6 21 6 28 0 7 19
        19 43 27 36 11 42 17 39 38 -3 32 -14 42 -46 43 -30 2 -30 1 -14 27 10 15 9
        22 -5 38 -27 30 -26 31 68 48 16 3 32 7 34 10 2 2 18 4 34 4 28 0 29 -1 25
        -37z m-222 -63 c-2 -34 -18 -59 -47 -74 -33 -16 -30 -29 9 -41 29 -8 32 -13
        32 -48 0 -34 -3 -39 -32 -49 -18 -7 -34 -12 -36 -12 -2 -1 -5 23 -7 52 -2 30
        -9 60 -15 67 -8 9 -9 28 -3 57 7 34 16 48 48 69 43 29 54 25 51 -21z" />
                            <path
                                d="M366 1241 c-29 -19 -54 -26 -95 -28 -30 -1 -57 -5 -58 -10 -7 -19 62
        -71 97 -75 34 -3 36 -1 68 61 18 36 31 68 30 72 -2 3 -21 -5 -42 -20z" />
                        </g>
                    </g>
                </g>
            </g>
        </g>
    </g>
</svg>