<svg xmlns="http://www.w3.org/2000/svg" width="302" height="445" version="1.1">
    <polygon points="1,50 1,25 301,25 301,50"
        style="fill:rgb(235,235,235);stroke:rgb(71,175,80);stroke-width:1" />
    <polygon points="1,25 1,1 301,1 301,25"
        style="fill:rgb(71,175,80);;stroke:rgb(71,175,80);stroke-width:1" />
    <rect width="300" height="395" x="1" y="50"
        style="fill:rgb(255,255,255);stroke-width:1;stroke:rgb(71,175,80)" />
    <g transform="scale(0.36,0.29)">
        <g transform="translate(150,170)">
            <g transform="translate(0,0)">
                <g transform="translate(0,0) scale(1,1)">

                    <path fill="#000"
                        d=" M 329.37 104.59 C 336.60 104.92 344.61 105.53 350.17 110.73 C 364.62 117.67 382.05 121.59 392.03 135.14 C 392.47 144.90 390.63 156.95 380.99 161.96 C 366.97 172.38 351.16 180.60 333.94 184.00 C 324.45 186.08 317.21 193.23 308.84 197.69 C 287.56 206.87 269.22 221.38 249.75 233.62 C 239.49 237.86 230.59 244.59 220.92 249.91 C 218.25 251.79 215.16 250.04 213.29 247.92 C 216.59 239.41 225.54 232.58 223.29 222.69 C 222.19 217.72 220.86 212.40 217.55 208.42 C 206.39 201.10 192.02 206.19 180.13 200.76 C 174.11 197.31 168.33 193.43 162.94 189.06 C 154.71 184.05 153.77 173.22 151.74 164.77 C 152.78 155.60 152.97 145.05 160.18 138.18 C 162.91 134.89 166.41 131.99 170.95 131.86 C 179.74 129.57 188.97 130.27 197.77 128.05 C 208.63 125.11 220.00 127.12 231.00 125.02 C 245.96 122.16 261.34 121.41 275.97 116.91 C 283.01 114.83 290.22 113.19 297.55 112.75 C 308.19 110.19 318.52 106.28 329.37 104.59 Z" />
                    <path fill="#000"
                        d=" M 346.50 290.49 C 357.23 286.17 369.84 286.10 380.72 290.23 C 388.29 293.08 396.57 293.63 403.93 297.14 C 413.51 301.84 424.02 304.06 434.20 306.98 C 440.55 312.96 444.41 321.24 446.39 329.68 C 432.65 340.08 418.27 350.12 401.91 355.94 C 387.86 361.61 373.05 365.01 358.69 369.71 C 348.17 374.74 336.54 376.36 325.48 379.71 C 316.62 383.42 306.93 384.47 298.00 388.00 C 291.13 390.77 283.76 391.89 276.85 394.50 C 267.80 397.70 258.33 399.47 248.80 400.32 C 229.96 408.06 212.67 419.74 192.54 424.25 C 178.17 425.43 163.65 425.88 149.28 424.41 C 145.65 424.18 142.57 421.99 139.29 420.67 C 133.04 417.64 125.85 417.57 119.34 415.43 C 112.13 411.17 105.47 406.02 98.32 401.66 C 87.10 394.23 80.85 380.55 83.17 367.17 C 85.46 363.34 88.70 359.83 92.97 358.24 C 107.94 358.12 122.72 355.30 137.64 354.24 C 145.56 352.94 153.82 355.25 161.51 352.29 C 168.81 350.12 176.42 349.28 183.99 348.72 C 190.50 348.88 196.05 345.20 202.23 343.90 C 221.39 340.92 240.09 335.51 258.67 330.16 C 263.88 329.57 268.86 328.02 273.47 325.46 C 276.97 323.50 281.12 324.95 284.81 323.72 C 290.61 322.22 295.29 318.43 300.34 315.42 C 307.63 312.06 315.91 311.09 322.96 307.13 C 331.32 302.37 340.28 298.05 346.50 290.49 Z" />
                </g>
            </g>
        </g>
    </g>
    <g transform="scale(0.55,0.55)">
        <g transform="translate(0,280)">
            <g transform="translate(0,0)">
                <g transform="translate(0,0) scale(1,1)">
                    <g
                        transform="scale(2.9464285714285716,2.9464285714285716) translate(43.099999999999994,19.599999999999994)">
                        <g transform="translate(0.000000,140.000000) scale(0.100000,-0.100000)"
                            fill="#db2828" stroke="none">
                            <path
                                d="M540 1357 c0 -24 -13 -83 -30 -130 -16 -48 -30 -93 -30 -100 0 -7
        -21 -19 -47 -25 -26 -7 -61 -19 -78 -27 -16 -7 -70 -31 -120 -53 -49 -22 -110
        -43 -134 -47 l-44 -7 24 -19 c32 -25 143 -69 173 -69 13 0 29 7 37 16 15 18
        69 48 75 41 3 -2 -16 -21 -42 -42 -53 -44 -43 -66 15 -33 l36 20 -40 -44 c-22
        -24 -45 -52 -50 -62 -10 -18 -14 -17 -82 7 -39 14 -73 23 -77 20 -3 -3 8 -24
        24 -47 31 -44 52 -109 46 -143 -3 -11 2 -33 10 -48 17 -32 10 -47 -19 -43 -57
        7 -53 -41 4 -61 49 -17 91 -13 153 14 31 14 59 25 61 25 3 0 5 -11 5 -25 0
        -14 -6 -25 -12 -25 -7 0 -57 -22 -110 -49 l-97 -49 -22 24 c-27 29 -44 31 -29
        5 21 -40 11 -55 -61 -98 -65 -38 -69 -42 -50 -52 11 -7 45 -13 76 -14 53 -2
        55 -3 57 -32 1 -16 1 -39 0 -50 -1 -34 19 -75 50 -96 16 -12 31 -20 32 -18 14
        16 24 49 21 65 -2 10 -6 48 -9 84 -2 36 -7 72 -11 81 -5 12 15 31 75 74 45 31
        84 55 86 52 11 -10 -10 -67 -27 -72 -25 -8 -24 -25 1 -25 11 0 20 -5 20 -11 0
        -5 -10 -9 -22 -7 -20 3 -23 -1 -20 -27 4 -47 23 -85 41 -85 9 0 40 29 68 63
        29 34 71 84 93 110 39 47 40 48 49 25 12 -32 79 -91 96 -84 7 2 15 15 17 28 4
        23 -17 92 -35 116 -13 17 -73 42 -99 42 -20 0 -20 -1 -3 -26 20 -30 20 -30
        -61 -82 l-62 -40 -5 46 c-3 26 -3 50 0 55 18 29 236 116 313 124 74 7 85 -6
        84 -101 0 -69 -6 -96 -46 -204 l-20 -54 -63 6 c-34 3 -75 10 -90 16 l-28 11
        18 -28 c10 -16 34 -48 54 -73 58 -75 58 -75 37 -67 -16 7 -17 5 -6 -9 18 -21
        76 -10 108 19 64 59 112 213 112 356 0 69 -4 85 -27 120 -22 34 -33 41 -70 47
        -65 10 -139 -3 -264 -46 -63 -21 -115 -37 -117 -36 -1 2 2 15 7 29 7 17 20 27
        43 32 53 11 80 33 72 58 -3 12 -13 28 -22 35 -14 11 -14 12 2 12 22 0 226 207
        226 229 0 9 -4 21 -8 26 -10 14 -60 48 -100 69 -41 21 -83 11 -197 -47 -44
        -23 -83 -43 -86 -45 -3 -1 30 33 72 77 76 78 80 81 165 106 49 14 98 25 110
        25 17 0 21 5 17 20 -9 33 -31 43 -92 43 l-58 0 15 29 c7 16 15 34 16 41 1 7
        10 30 20 52 9 22 16 48 14 59 -3 23 -72 66 -105 66 -20 0 -23 -5 -23 -43z m98
        -484 c-12 -86 -109 -225 -163 -236 -20 -3 -25 -1 -21 10 3 8 6 21 6 28 0 7 19
        19 43 27 36 11 42 17 39 38 -3 32 -14 42 -46 43 -30 2 -30 1 -14 27 10 15 9
        22 -5 38 -27 30 -26 31 68 48 16 3 32 7 34 10 2 2 18 4 34 4 28 0 29 -1 25
        -37z m-222 -63 c-2 -34 -18 -59 -47 -74 -33 -16 -30 -29 9 -41 29 -8 32 -13
        32 -48 0 -34 -3 -39 -32 -49 -18 -7 -34 -12 -36 -12 -2 -1 -5 23 -7 52 -2 30
        -9 60 -15 67 -8 9 -9 28 -3 57 7 34 16 48 48 69 43 29 54 25 51 -21z" />
                            <path
                                d="M366 1241 c-29 -19 -54 -26 -95 -28 -30 -1 -57 -5 -58 -10 -7 -19 62
        -71 97 -75 34 -3 36 -1 68 61 18 36 31 68 30 72 -2 3 -21 -5 -42 -20z" />
                        </g>
                    </g>
                </g>
            </g>
        </g>
    </g>
</svg>