<svg xmlns="http://www.w3.org/2000/svg" width="302" height="445" version="1.1">
    <polygon points="1,50 1,25 301,25 301,50"
        style="fill:rgb(235,235,235);stroke:rgb(71,175,80);stroke-width:1" />
    <polygon
        points="1,25 1,1 301,1 301,25"
        style="fill:rgb(71,175,80);;stroke:rgb(71,175,80);stroke-width:1" />
    <rect width="300"
        height="395" x="1" y="50"
        style="fill:rgb(255,255,255);stroke-width:1;stroke:rgb(71,175,80)" />
    <g transform="scale(1, 1)">
        <circle cx="100" cy="110" r="36" fill="#fff" stroke="#6040a5" stroke-width="15"></circle>
        <circle cx="100" cy="110" r="18" fill="#6040a5"></circle>
        <circle cx="200" cy="110" r="36" fill="#fff" stroke="#6040a5" stroke-width="15"></circle>
        <circle cx="200" cy="110" r="18" fill="#6040a5"></circle>
        <circle cx="100" cy="202.5" r="36" fill="#fff" stroke="#6040a5" stroke-width="15"></circle>
        <circle cx="100" cy="202.5" r="18" fill="#6040a5"></circle>
        <circle cx="200" cy="202.5" r="36" fill="#fff" stroke="#6040a5" stroke-width="15"></circle>
        <circle cx="200" cy="202.5" r="18" fill="#6040a5"></circle>
        <circle cx="100" cy="297.5" r="36" fill="#fff" stroke="#6040a5" stroke-width="15"></circle>
        <circle cx="100" cy="297.5" r="18" fill="#6040a5"></circle>
        <circle cx="200" cy="297.5" r="36" fill="#fff" stroke="#6040a5" stroke-width="15"></circle>
        <circle cx="200" cy="297.5" r="18" fill="#6040a5"></circle>
        <circle cx="100" cy="390" r="36" fill="#fff" stroke="#6040a5" stroke-width="15"></circle>
        <circle cx="100" cy="390" r="18" fill="#6040a5"></circle>
        <circle cx="200" cy="390" r="36" fill="#fff" stroke="#6040a5" stroke-width="15"></circle>
        <circle cx="200" cy="390" r="18" fill="#6040a5"></circle>
    </g>
</svg>