<svg xmlns="http://www.w3.org/2000/svg" width="302" height="445" version="1.1">
    <polygon points="1,50 1,25 301,25 301,50"
        style="fill:rgb(235,235,235);stroke:rgb(71,175,80);stroke-width:1" />
    <polygon points="1,25 1,1 301,1 301,25"
        style="fill:rgb(71,175,80);;stroke:rgb(71,175,80);stroke-width:1" />
    <rect width="300" height="395" x="1" y="50"
        style="fill:rgb(255,255,255);stroke-width:1;stroke:rgb(71,175,80)" />
    <g transform="scale(0.38,0.29)">
        <g transform="translate(120,160)">
            <g transform="translate(0,0)">
                <g transform="translate(0,0) scale(1,1)">

                    <path fill="#000"
                        d=" M 301.97 81.84 C 311.40 80.98 320.56 83.95 329.95 84.31 C 333.52 90.46 335.30 98.35 341.88 102.16 C 347.18 106.42 354.11 108.09 359.04 112.89 C 360.85 115.91 361.28 119.51 362.29 122.85 C 358.70 125.34 355.23 128.00 351.36 130.05 C 343.61 133.94 334.71 134.91 327.28 139.51 C 320.02 144.44 311.11 145.28 302.96 147.96 C 299.30 147.91 296.72 150.27 294.24 152.47 C 287.78 153.02 280.63 150.84 274.82 154.63 C 270.15 157.29 264.81 159.11 260.86 162.86 C 256.99 168.14 254.29 174.16 251.59 180.10 C 243.36 180.50 234.72 181.66 226.98 178.07 C 224.05 177.02 219.78 175.94 219.09 172.28 C 217.58 163.81 214.48 155.73 210.97 147.92 C 202.55 133.32 192.33 119.84 180.50 107.83 C 183.02 104.05 184.70 99.43 188.41 96.63 C 201.93 91.49 216.52 88.61 231.02 89.90 C 254.66 87.26 278.26 83.95 301.97 81.84 Z" />
                    <path fill="#000"
                        d=" M 289.43 228.12 C 302.97 220.71 319.28 221.66 334.05 223.85 C 340.91 223.51 344.95 229.49 349.74 233.28 C 355.72 239.05 363.84 241.73 370.49 246.55 C 372.36 248.76 373.66 252.26 372.01 254.95 C 368.17 260.56 365.16 268.88 357.20 269.38 C 350.47 271.48 343.50 273.17 337.37 276.77 C 326.65 281.20 314.79 282.43 304.58 288.21 C 297.86 292.37 289.27 292.06 282.95 296.91 C 275.02 302.75 265.68 306.63 255.95 308.16 C 245.67 310.17 238.58 320.43 227.61 319.95 C 216.05 319.65 204.63 322.14 193.08 321.70 C 186.59 319.63 180.71 316.03 174.27 313.81 C 168.69 311.89 163.55 308.78 159.17 304.84 C 151.49 296.21 143.75 287.54 137.99 277.45 C 136.31 277.97 134.61 278.46 132.91 278.93 C 132.95 274.00 132.70 269.09 132.04 264.21 C 139.28 262.74 146.59 266.91 153.61 264.09 C 161.04 261.73 168.78 260.25 175.82 256.78 C 181.89 254.31 187.45 249.65 194.32 249.71 C 217.31 247.80 241.50 245.45 261.41 232.63 C 270.44 229.66 280.29 230.68 289.43 228.12 Z" />
                    <path fill="#000"
                        d=" M 349.55 346.34 C 360.09 343.47 371.17 344.08 382.00 343.89 C 397.57 344.04 413.21 343.56 428.71 345.30 C 435.45 345.42 441.04 349.64 445.54 354.24 C 446.92 356.83 446.51 360.10 447.18 362.97 C 450.33 363.37 453.77 362.86 456.64 364.43 C 463.59 369.09 469.75 375.56 471.61 384.02 C 467.08 386.55 462.40 388.96 458.48 392.42 C 455.53 395.63 454.95 400.64 450.73 402.77 C 447.31 403.95 443.74 404.60 440.15 404.02 C 435.16 403.06 431.01 406.70 426.35 407.75 C 419.22 409.10 411.69 409.21 404.80 406.74 C 399.90 406.67 396.15 411.02 391.50 411.95 C 382.40 412.78 373.26 413.40 364.26 415.04 C 356.58 417.18 348.79 414.92 341.01 415.95 C 332.09 414.34 325.16 421.04 317.33 423.82 C 294.13 426.63 270.65 426.62 247.51 430.06 C 243.27 430.84 239.31 432.66 235.13 433.68 C 227.80 434.99 220.20 433.73 212.99 435.83 C 206.25 437.50 199.31 438.52 192.80 440.98 C 186.32 443.95 178.69 443.66 172.10 441.20 C 168.37 443.70 165.17 447.20 160.87 448.73 C 155.77 447.77 151.69 443.39 146.07 444.53 C 137.13 445.93 128.08 446.55 119.03 446.73 C 110.09 446.47 101.54 443.22 92.60 443.12 C 89.75 442.88 86.81 443.62 83.99 442.97 C 77.16 439.58 71.82 433.69 68.93 426.62 C 66.45 420.92 61.65 416.64 59.05 411.06 C 57.71 405.21 57.78 399.04 58.50 393.11 C 58.88 389.84 63.27 387.33 65.68 390.28 C 72.28 398.46 82.05 404.74 92.98 403.71 C 110.45 401.63 126.46 393.69 143.43 389.59 C 170.78 384.41 197.32 375.92 224.28 369.17 C 228.39 367.89 232.36 365.66 236.85 366.39 C 247.36 366.72 257.79 364.14 268.01 362.14 C 278.79 356.04 291.84 359.83 303.12 355.31 C 317.97 349.46 334.27 350.43 349.55 346.34 Z" />
                </g>
            </g>
        </g>
    </g>
    <g transform="scale(0.55,0.55)">
        <g transform="translate(0,280)">
            <g transform="translate(0,0)">
                <g transform="translate(0,0) scale(1,1)">
                    <g
                        transform="scale(2.9464285714285716,2.9464285714285716) translate(43.099999999999994,19.599999999999994)">
                        <g transform="translate(0.000000,140.000000) scale(0.100000,-0.100000)"
                            fill="#db2828" stroke="none">
                            <path
                                d="M540 1357 c0 -24 -13 -83 -30 -130 -16 -48 -30 -93 -30 -100 0 -7
        -21 -19 -47 -25 -26 -7 -61 -19 -78 -27 -16 -7 -70 -31 -120 -53 -49 -22 -110
        -43 -134 -47 l-44 -7 24 -19 c32 -25 143 -69 173 -69 13 0 29 7 37 16 15 18
        69 48 75 41 3 -2 -16 -21 -42 -42 -53 -44 -43 -66 15 -33 l36 20 -40 -44 c-22
        -24 -45 -52 -50 -62 -10 -18 -14 -17 -82 7 -39 14 -73 23 -77 20 -3 -3 8 -24
        24 -47 31 -44 52 -109 46 -143 -3 -11 2 -33 10 -48 17 -32 10 -47 -19 -43 -57
        7 -53 -41 4 -61 49 -17 91 -13 153 14 31 14 59 25 61 25 3 0 5 -11 5 -25 0
        -14 -6 -25 -12 -25 -7 0 -57 -22 -110 -49 l-97 -49 -22 24 c-27 29 -44 31 -29
        5 21 -40 11 -55 -61 -98 -65 -38 -69 -42 -50 -52 11 -7 45 -13 76 -14 53 -2
        55 -3 57 -32 1 -16 1 -39 0 -50 -1 -34 19 -75 50 -96 16 -12 31 -20 32 -18 14
        16 24 49 21 65 -2 10 -6 48 -9 84 -2 36 -7 72 -11 81 -5 12 15 31 75 74 45 31
        84 55 86 52 11 -10 -10 -67 -27 -72 -25 -8 -24 -25 1 -25 11 0 20 -5 20 -11 0
        -5 -10 -9 -22 -7 -20 3 -23 -1 -20 -27 4 -47 23 -85 41 -85 9 0 40 29 68 63
        29 34 71 84 93 110 39 47 40 48 49 25 12 -32 79 -91 96 -84 7 2 15 15 17 28 4
        23 -17 92 -35 116 -13 17 -73 42 -99 42 -20 0 -20 -1 -3 -26 20 -30 20 -30
        -61 -82 l-62 -40 -5 46 c-3 26 -3 50 0 55 18 29 236 116 313 124 74 7 85 -6
        84 -101 0 -69 -6 -96 -46 -204 l-20 -54 -63 6 c-34 3 -75 10 -90 16 l-28 11
        18 -28 c10 -16 34 -48 54 -73 58 -75 58 -75 37 -67 -16 7 -17 5 -6 -9 18 -21
        76 -10 108 19 64 59 112 213 112 356 0 69 -4 85 -27 120 -22 34 -33 41 -70 47
        -65 10 -139 -3 -264 -46 -63 -21 -115 -37 -117 -36 -1 2 2 15 7 29 7 17 20 27
        43 32 53 11 80 33 72 58 -3 12 -13 28 -22 35 -14 11 -14 12 2 12 22 0 226 207
        226 229 0 9 -4 21 -8 26 -10 14 -60 48 -100 69 -41 21 -83 11 -197 -47 -44
        -23 -83 -43 -86 -45 -3 -1 30 33 72 77 76 78 80 81 165 106 49 14 98 25 110
        25 17 0 21 5 17 20 -9 33 -31 43 -92 43 l-58 0 15 29 c7 16 15 34 16 41 1 7
        10 30 20 52 9 22 16 48 14 59 -3 23 -72 66 -105 66 -20 0 -23 -5 -23 -43z m98
        -484 c-12 -86 -109 -225 -163 -236 -20 -3 -25 -1 -21 10 3 8 6 21 6 28 0 7 19
        19 43 27 36 11 42 17 39 38 -3 32 -14 42 -46 43 -30 2 -30 1 -14 27 10 15 9
        22 -5 38 -27 30 -26 31 68 48 16 3 32 7 34 10 2 2 18 4 34 4 28 0 29 -1 25
        -37z m-222 -63 c-2 -34 -18 -59 -47 -74 -33 -16 -30 -29 9 -41 29 -8 32 -13
        32 -48 0 -34 -3 -39 -32 -49 -18 -7 -34 -12 -36 -12 -2 -1 -5 23 -7 52 -2 30
        -9 60 -15 67 -8 9 -9 28 -3 57 7 34 16 48 48 69 43 29 54 25 51 -21z" />
                            <path
                                d="M366 1241 c-29 -19 -54 -26 -95 -28 -30 -1 -57 -5 -58 -10 -7 -19 62
        -71 97 -75 34 -3 36 -1 68 61 18 36 31 68 30 72 -2 3 -21 -5 -42 -20z" />
                        </g>
                    </g>
                </g>
            </g>
        </g>
    </g>
</svg>