<svg xmlns="http://www.w3.org/2000/svg" width="302" height="445" version="1.1">
    <polygon points="1,50 1,25 301,25 301,50"
        style="fill:rgb(235,235,235);stroke:rgb(71,175,80);stroke-width:1" />
    <polygon points="1,25 1,1 301,1 301,25"
        style="fill:rgb(71,175,80);;stroke:rgb(71,175,80);stroke-width:1" />
    <rect width="300" height="395" x="1" y="50"
        style="fill:rgb(255,255,255);stroke-width:1;stroke:rgb(71,175,80)" />
    <g transform="scale(0.65,0.65)">
        <g transform="translate(-40,100)">
            <g transform="translate(0,0)">
                <g transform="translate(0,0) scale(1,1)">

                    <path fill="#000"
                        d=" M 227.37 62.76 C 238.83 59.24 251.04 59.58 262.92 59.42 C 266.68 59.26 268.14 63.40 269.63 66.13 C 269.31 72.79 266.08 79.07 266.78 85.85 C 267.28 94.56 266.59 103.27 265.89 111.94 C 266.23 117.23 268.40 122.24 269.88 127.31 C 278.67 125.19 286.83 129.34 295.33 130.84 C 295.17 133.78 295.52 136.82 294.61 139.66 C 289.21 149.94 278.58 155.61 270.95 163.93 C 266.28 172.13 268.45 182.31 269.53 191.19 C 281.53 187.29 293.00 182.03 304.92 177.93 C 310.53 176.13 313.71 170.76 317.55 166.65 C 323.22 166.60 328.72 168.16 333.59 171.04 C 339.28 172.23 340.22 178.44 342.89 182.53 C 346.45 189.51 353.57 193.66 357.86 200.07 C 360.68 208.82 362.07 218.86 358.67 227.68 C 354.07 236.66 345.31 242.80 341.11 252.04 C 338.04 257.71 337.18 264.68 332.30 269.27 C 327.98 273.83 323.52 279.12 323.77 285.84 C 321.78 294.94 326.15 307.05 317.38 313.40 C 315.77 314.82 314.15 316.40 312.04 317.02 C 299.29 320.66 285.94 319.67 272.86 319.58 C 268.33 319.41 264.44 322.84 263.08 327.01 C 257.15 346.22 254.91 367.23 260.00 386.89 C 267.06 384.69 272.97 379.67 280.41 378.53 C 298.00 374.81 316.29 375.55 333.97 378.21 C 349.89 382.37 365.40 388.21 379.86 396.11 C 388.58 401.25 399.48 402.57 406.44 410.54 C 417.12 420.58 422.18 434.62 430.42 446.42 C 426.61 446.38 422.59 446.73 419.08 444.93 C 410.00 441.06 400.26 438.59 391.99 433.02 C 380.28 425.56 367.07 421.03 354.34 415.69 C 341.30 411.30 329.20 404.40 315.77 401.13 C 301.96 396.63 287.83 393.14 273.54 390.60 C 268.71 389.48 260.91 389.42 259.46 395.56 C 255.65 409.29 262.14 423.03 263.31 436.67 C 264.32 451.86 264.99 467.14 264.38 482.37 C 255.24 484.62 246.38 480.35 239.89 474.20 C 236.47 468.83 235.54 461.92 230.17 457.82 C 219.52 448.66 203.22 453.11 192.33 444.48 C 204.02 444.16 215.68 445.83 227.36 445.34 C 232.94 444.83 239.66 441.74 240.46 435.59 C 242.75 418.50 243.21 400.86 240.14 383.84 C 239.34 379.68 234.50 378.55 230.98 379.82 C 218.47 381.61 213.39 395.28 203.02 400.97 C 192.75 407.04 182.02 412.51 170.88 416.77 C 159.27 419.56 147.96 423.60 136.21 425.78 C 142.16 421.08 149.62 419.00 156.00 415.01 C 167.60 408.02 180.05 401.37 188.37 390.36 C 194.54 382.81 200.72 375.26 206.38 367.31 C 209.30 363.35 209.92 357.58 207.89 353.13 C 202.67 344.36 191.73 343.33 182.95 340.07 C 183.00 339.34 183.10 337.89 183.15 337.16 C 186.51 335.66 189.88 334.14 193.27 332.70 C 194.27 327.29 196.37 321.63 195.11 316.08 C 191.61 300.25 183.48 285.99 178.49 270.65 C 175.90 262.46 174.76 253.79 170.91 246.04 C 167.49 238.25 162.84 230.98 160.11 222.90 C 157.07 210.29 161.56 197.77 163.84 185.48 C 167.39 192.35 169.37 199.84 172.06 207.05 C 176.52 215.23 182.74 222.28 188.63 229.43 C 201.42 241.74 199.84 261.27 206.44 276.68 C 213.32 293.73 210.40 313.05 217.91 329.87 C 220.35 330.36 222.78 330.87 225.23 331.34 C 235.60 318.63 240.60 301.71 238.51 285.42 C 236.14 274.39 217.84 279.68 215.73 268.18 C 222.24 264.77 229.90 263.46 235.73 258.76 C 239.57 253.88 238.43 247.06 238.54 241.33 C 237.76 234.11 237.94 226.71 236.34 219.60 C 235.71 216.40 232.15 215.24 229.35 214.67 C 219.95 213.60 210.49 214.73 201.08 214.70 C 196.57 213.85 193.63 209.75 190.38 206.82 C 206.09 206.43 221.64 203.97 237.30 202.95 C 238.25 198.71 238.69 194.36 238.42 190.00 C 237.88 177.31 240.24 164.04 235.27 151.93 C 219.57 152.73 206.91 142.24 193.57 135.64 C 203.94 132.85 214.19 137.62 224.62 136.43 C 228.86 135.68 232.90 134.14 237.06 133.03 C 239.53 121.86 242.47 110.21 239.29 98.87 C 237.28 86.19 230.32 75.16 227.37 62.76 M 283.57 213.24 C 278.73 214.99 271.24 214.10 268.97 219.96 C 267.23 224.10 266.93 230.15 270.77 233.20 C 275.75 238.03 283.93 236.58 288.89 241.22 C 289.34 244.11 288.25 247.13 286.14 249.15 C 279.99 256.40 270.24 261.02 267.89 270.97 C 266.10 281.91 269.11 293.01 268.25 304.04 C 275.25 302.67 283.03 301.62 288.33 296.31 C 293.20 289.27 292.52 280.15 295.40 272.30 C 301.79 255.46 306.88 237.92 307.88 219.85 C 307.78 217.00 308.19 213.88 306.65 211.38 C 299.54 206.42 290.87 212.27 283.57 213.24 Z" />
                </g>
            </g>
        </g>
    </g>
</svg>