<svg xmlns="http://www.w3.org/2000/svg" width="302" height="445" version="1.1">
    <polygon points="1,50 1,25 301,25 301,50"
        style="fill:rgb(235,235,235);stroke:rgb(71,175,80);stroke-width:1" />
    <polygon points="1,25 1,1 301,1 301,25"
        style="fill:rgb(71,175,80);;stroke:rgb(71,175,80);stroke-width:1" />
    <rect width="300" height="395" x="1" y="50"
        style="fill:rgb(255,255,255);stroke-width:1;stroke:rgb(71,175,80)" />
    <g transform="scale(0.55,0.65)">
        <g transform="translate(0,100)">
            <g transform="translate(0,0)">
                <g transform="translate(0,0) scale(1,1)">

                    <path fill="#000"
                        d=" M 249.01 73.59 C 257.48 70.50 267.48 70.21 275.53 74.58 C 280.01 81.94 280.76 91.44 287.63 97.36 C 295.38 106.17 307.69 108.22 316.60 115.46 C 322.91 120.59 329.55 126.52 330.91 135.01 C 330.61 137.76 329.16 140.35 327.63 142.60 C 320.82 147.96 312.85 151.56 306.00 156.88 C 296.42 161.83 286.67 166.69 276.25 169.67 C 266.68 174.44 256.24 177.27 247.11 182.95 C 240.25 186.01 239.72 194.81 234.96 199.93 C 227.55 206.82 220.20 214.54 216.91 224.33 C 211.11 237.40 202.27 248.75 195.64 261.37 C 198.63 262.07 202.15 264.46 205.01 262.16 C 211.81 259.07 215.01 252.35 218.73 246.38 C 225.21 237.49 237.29 238.26 246.78 235.37 C 257.07 233.90 265.10 226.78 274.87 223.82 C 291.83 218.66 308.97 213.80 326.48 210.85 C 336.17 208.54 345.30 203.49 355.56 204.48 C 368.16 205.17 381.28 202.60 393.29 207.60 C 403.93 211.25 415.62 212.35 425.09 218.86 C 432.88 224.20 440.71 229.99 446.36 237.66 C 448.30 242.01 448.41 247.00 448.06 251.70 C 446.83 262.42 450.22 273.22 447.89 283.88 C 444.75 302.08 437.35 319.44 436.32 338.03 C 435.52 345.04 436.34 352.52 432.98 359.00 C 427.56 371.52 423.75 384.67 418.40 397.23 C 416.80 401.20 416.55 405.55 415.20 409.60 C 412.98 414.02 408.13 416.49 406.19 421.10 C 403.09 427.29 401.95 434.72 396.43 439.39 C 389.99 446.83 381.85 452.77 372.97 456.93 C 367.39 459.46 362.25 455.84 357.25 453.83 C 351.89 451.36 346.18 449.82 340.59 447.97 C 335.96 445.89 331.81 442.65 326.75 441.63 C 320.00 440.34 314.58 435.62 308.98 432.00 C 299.96 425.30 290.91 418.64 281.65 412.29 C 278.28 425.49 275.29 438.84 270.42 451.59 C 269.04 454.84 265.67 456.35 262.66 457.73 C 261.48 451.06 258.40 444.82 257.25 438.22 C 259.96 424.12 255.50 410.18 253.57 396.32 C 253.27 392.81 249.85 391.12 246.91 390.06 C 236.49 391.86 228.17 398.95 218.42 402.52 C 207.63 407.23 196.11 409.90 184.60 412.19 C 183.20 406.61 181.49 401.11 179.31 395.79 C 192.29 380.21 208.89 368.30 224.12 355.08 C 229.36 349.20 232.09 341.61 235.49 334.63 C 230.98 332.77 226.08 331.38 221.16 332.13 C 215.40 334.08 211.90 340.81 205.09 340.01 C 202.12 338.76 199.63 335.49 200.94 331.98 C 199.84 320.96 206.65 311.88 211.67 302.84 C 215.12 295.42 220.47 288.81 221.78 280.51 C 214.79 276.89 209.49 283.71 203.70 286.46 C 194.71 290.08 185.54 293.37 177.05 298.11 C 172.26 300.91 166.30 299.97 161.42 302.61 C 156.09 305.45 149.66 304.78 144.29 307.34 C 135.65 321.62 128.95 337.97 129.80 354.99 C 129.26 365.36 130.22 375.86 134.86 385.25 C 136.09 392.30 140.08 399.35 137.71 406.62 C 137.19 409.53 136.62 412.51 135.97 415.42 C 129.04 411.93 121.69 408.39 116.84 402.12 C 114.22 398.80 111.13 395.71 109.38 391.83 C 104.48 374.57 101.85 356.64 95.10 339.94 C 92.86 334.39 91.82 328.46 89.90 322.82 C 87.95 318.20 83.70 314.42 83.54 309.14 C 83.23 304.02 82.13 298.99 81.19 293.97 C 86.46 298.30 91.55 302.99 95.19 308.84 C 99.55 315.37 102.27 322.83 106.71 329.31 C 109.97 333.70 113.93 337.51 117.82 341.35 C 125.74 325.63 131.32 308.49 142.76 294.78 C 153.31 282.15 163.16 268.94 172.30 255.25 C 174.62 252.02 175.45 248.11 176.84 244.47 C 180.23 236.40 188.81 232.46 192.83 224.82 C 198.33 215.03 205.10 204.90 204.90 193.20 C 203.76 191.78 202.02 190.96 200.19 191.22 C 183.99 192.38 168.01 197.19 151.69 196.26 C 142.90 193.95 133.04 194.44 125.10 189.48 C 127.07 187.72 128.83 185.45 131.45 184.67 C 144.68 182.39 158.17 182.52 171.44 180.61 C 179.67 179.71 187.55 177.06 195.69 175.69 C 205.34 174.18 214.20 169.91 223.07 166.04 C 225.94 165.18 228.01 162.90 229.18 160.23 C 232.97 151.29 235.14 141.79 238.65 132.75 C 241.37 125.23 245.13 118.05 246.41 110.08 C 249.77 98.24 248.97 85.76 249.01 73.59 M 278.05 117.06 C 274.30 124.30 270.32 131.44 266.97 138.88 C 266.22 140.83 267.23 142.90 267.51 144.85 C 273.12 141.59 279.49 138.76 283.61 133.65 C 287.50 128.36 284.42 122.15 282.15 116.94 C 280.78 116.98 279.42 117.02 278.05 117.06 M 363.30 217.91 C 356.94 218.66 350.17 217.46 344.14 220.02 C 337.46 222.58 330.06 222.10 323.28 224.27 C 318.85 225.74 315.48 229.13 311.79 231.85 C 304.33 229.58 296.74 233.52 290.01 236.21 C 279.17 243.52 265.69 244.82 254.71 251.80 C 248.53 254.85 246.52 262.25 245.39 268.51 C 243.48 278.06 240.10 287.38 240.77 297.30 C 244.87 294.35 248.89 291.30 252.93 288.26 C 261.40 293.59 271.47 294.00 280.90 296.24 C 284.56 299.47 288.10 304.68 286.87 309.82 C 286.06 315.27 285.11 320.70 284.53 326.19 C 289.63 329.97 296.46 331.38 300.60 336.42 C 302.54 339.46 306.88 342.18 304.39 346.49 C 298.33 357.94 287.59 365.75 278.15 374.20 C 277.66 379.55 276.82 386.63 281.68 390.33 C 288.59 395.64 297.21 398.19 303.77 404.01 C 322.14 409.46 341.81 407.74 360.42 412.31 C 365.57 405.05 368.18 396.57 370.57 388.11 C 377.22 377.52 377.13 364.46 382.89 353.50 C 384.76 346.24 384.17 338.35 387.60 331.50 C 395.68 313.78 401.91 294.97 403.65 275.47 C 405.34 262.70 408.89 250.08 408.63 237.12 C 407.85 232.63 407.83 226.36 402.92 224.16 C 390.94 217.52 376.59 217.58 363.30 217.91 Z" />
                    <path fill="#000"
                        d=" M 126.64 273.43 C 127.92 272.25 130.30 274.28 129.24 275.70 C 127.93 276.95 125.54 274.87 126.64 273.43 Z" />
                </g>
            </g>
        </g>
    </g>
</svg>