<svg xmlns="http://www.w3.org/2000/svg" width="302" height="445" version="1.1">
    <polygon points="1,50 1,25 301,25 301,50"
        style="fill:rgb(235,235,235);stroke:rgb(71,175,80);stroke-width:1" />
    <polygon points="1,25 1,1 301,1 301,25"
        style="fill:rgb(71,175,80);;stroke:rgb(71,175,80);stroke-width:1" />
    <rect width="300" height="395" x="1" y="50"
        style="fill:rgb(255,255,255);stroke-width:1;stroke:rgb(71,175,80)" />
    <g transform="scale(0.65,0.65)">
        <g transform="translate(-30,100)">
            <g transform="translate(0,0)">
                <g transform="translate(0,0) scale(1,1)">

                    <path fill="#000"
                        d=" M 270.00 121.86 C 274.78 120.20 279.39 116.83 284.67 117.34 C 291.76 119.23 297.17 124.80 301.54 130.43 C 303.01 133.96 302.30 137.96 302.43 141.71 C 280.25 141.64 258.81 148.13 237.33 152.75 C 212.52 170.25 198.18 198.05 180.15 221.72 C 176.95 230.32 173.11 238.68 168.48 246.59 C 162.13 254.88 158.29 264.71 152.36 273.29 C 148.93 284.55 143.52 295.21 141.56 306.92 C 138.61 317.61 135.76 328.40 134.66 339.47 C 134.62 343.88 133.42 348.12 132.14 352.30 C 149.88 339.90 167.59 327.39 186.15 316.24 C 199.53 308.59 213.85 302.71 227.22 295.05 C 227.11 281.53 225.55 268.10 224.10 254.69 C 222.46 247.23 220.78 239.76 220.08 232.15 C 228.66 231.26 237.60 232.59 244.74 237.63 C 241.11 253.71 243.64 270.37 240.92 286.60 C 249.25 285.42 256.80 281.55 263.95 277.34 C 272.13 274.38 280.59 272.32 288.95 269.92 C 290.86 249.96 292.20 229.90 291.45 209.84 C 302.54 213.14 308.87 223.02 314.83 232.14 C 315.24 232.80 315.37 233.52 315.22 234.29 C 313.38 243.96 309.64 253.12 307.49 262.71 C 316.35 264.79 323.45 256.92 332.08 256.44 C 344.67 254.70 357.30 253.01 369.94 251.66 C 380.97 253.89 391.78 257.08 402.73 259.66 C 409.74 262.57 416.17 266.76 422.99 270.11 C 415.59 281.97 411.83 296.36 400.75 305.69 C 394.72 310.03 391.33 316.90 385.70 321.67 C 371.36 334.37 358.01 348.35 346.93 364.01 C 344.19 367.43 347.35 371.53 348.16 375.07 C 346.81 376.47 345.45 377.85 344.10 379.25 C 346.41 380.81 348.67 382.45 350.85 384.19 C 343.15 389.09 333.69 387.67 325.03 388.37 C 298.83 388.91 272.57 392.98 247.87 401.86 C 239.72 404.31 231.09 404.56 222.90 406.88 C 216.98 407.46 210.51 410.54 204.66 408.32 C 197.34 402.99 191.66 395.78 185.33 389.35 C 198.54 383.87 213.07 386.30 226.90 384.82 C 235.43 384.42 242.51 379.06 247.76 372.75 C 249.48 370.47 249.41 367.47 249.78 364.77 C 253.53 362.99 257.16 360.94 260.54 358.52 C 264.21 353.88 266.76 348.44 268.84 342.93 C 270.29 339.43 269.40 335.53 270.40 331.94 C 277.02 317.76 283.72 303.03 284.35 287.14 C 269.44 291.08 254.57 295.56 241.14 303.31 C 240.99 315.82 240.99 328.33 240.96 340.84 C 247.19 336.60 253.89 332.93 261.43 331.75 C 259.31 337.66 255.47 342.66 252.13 347.91 C 250.26 352.08 250.76 357.01 248.95 361.23 C 246.19 364.88 242.64 367.90 240.00 371.66 C 234.56 368.04 228.76 364.23 225.91 358.06 C 223.44 353.82 225.39 348.97 225.88 344.47 C 226.48 337.77 228.39 330.87 226.71 324.19 C 225.90 320.76 224.97 317.32 224.73 313.79 C 215.99 316.68 207.25 320.15 200.10 326.11 C 189.87 334.86 180.63 344.75 169.91 352.94 C 164.47 356.99 163.61 364.30 161.34 370.27 C 159.41 379.25 153.73 386.69 149.81 394.85 C 147.40 399.38 149.94 404.62 148.92 409.43 C 147.99 410.89 146.11 413.82 145.18 415.28 C 138.02 409.60 132.91 401.25 123.96 398.06 C 117.29 394.45 108.20 391.75 105.81 383.82 C 108.96 362.89 115.05 342.51 120.15 321.99 C 126.92 307.95 130.82 292.75 137.71 278.75 C 140.56 271.04 143.96 263.53 148.59 256.71 C 151.37 252.16 150.92 245.94 155.56 242.54 C 166.29 229.98 171.27 213.53 181.70 200.71 C 186.85 195.86 193.01 191.82 196.34 185.33 C 203.22 173.25 212.31 162.66 219.86 151.03 C 216.22 149.19 212.27 148.05 208.70 146.10 C 202.82 141.71 197.93 136.17 192.69 131.07 C 193.54 130.01 194.39 128.95 195.25 127.89 C 208.38 132.50 222.51 130.29 235.98 128.74 C 241.04 128.95 244.95 125.62 249.45 124.01 C 256.26 122.97 263.20 123.07 270.00 121.86 M 314.70 279.34 C 310.71 281.00 304.57 279.70 303.15 285.02 C 299.61 296.57 300.28 309.03 296.32 320.50 C 289.60 335.33 287.35 351.98 278.94 366.10 C 276.00 369.49 272.18 372.00 268.88 375.02 C 278.86 374.55 287.99 370.78 297.08 367.11 C 302.29 364.36 309.32 367.09 313.70 362.75 C 321.82 353.84 326.60 342.62 332.05 332.03 C 335.87 324.27 340.34 316.80 343.26 308.62 C 346.58 297.21 355.29 288.04 357.09 276.11 C 343.02 276.41 328.09 273.93 314.70 279.34 Z" />
                    <path fill="#000"
                        d=" M 303.16 209.28 C 304.92 209.55 306.67 209.85 308.42 210.17 C 307.36 211.59 306.28 213.00 305.18 214.39 C 304.48 212.69 303.80 211.00 303.16 209.28 Z" />
                </g>
            </g>
        </g>
    </g>
</svg>