<svg xmlns="http://www.w3.org/2000/svg" width="302" height="445" version="1.1">
    <polygon points="1,50 1,25 301,25 301,50"
        style="fill:rgb(235,235,235);stroke:rgb(71,175,80);stroke-width:1" />
    <polygon points="1,25 1,1 301,1 301,25"
        style="fill:rgb(71,175,80);;stroke:rgb(71,175,80);stroke-width:1" />
    <rect width="300" height="395" x="1" y="50"
        style="fill:rgb(255,255,255);stroke-width:1;stroke:rgb(71,175,80)" />
    <g transform="scale(0.42,0.42)">
        <g transform="translate(100,60)">
            <g transform="translate(0,0)">
                <g transform="translate(0,0) scale(1,1)">

                    <path fill="#000"
                        d=" M 365.21 169.39 C 371.01 166.96 377.40 168.48 382.81 171.18 C 393.23 176.29 399.03 186.79 407.43 194.33 C 408.16 193.39 408.89 192.43 409.62 191.48 C 413.89 194.56 418.54 197.09 422.64 200.42 C 427.23 204.24 426.79 211.61 431.82 215.08 C 437.01 218.88 440.99 224.01 445.49 228.55 C 448.39 231.52 452.59 232.45 456.25 234.17 C 454.99 238.47 453.42 242.70 452.77 247.16 C 454.77 252.31 460.43 256.09 460.63 261.93 C 457.49 271.94 449.77 279.96 441.97 286.61 C 434.48 289.27 427.27 292.97 422.80 299.84 C 415.09 304.92 406.52 308.77 397.85 311.98 C 393.23 313.58 391.07 318.48 387.45 321.42 C 383.61 325.23 377.41 324.09 373.39 327.50 C 370.78 329.27 368.69 331.95 365.63 333.00 C 357.99 334.87 351.24 339.14 343.96 341.99 C 336.45 344.78 331.26 352.61 322.90 353.05 C 312.86 352.56 303.09 357.25 293.05 354.90 C 295.50 351.60 298.45 348.72 301.26 345.75 C 298.12 340.07 297.69 331.86 291.53 328.36 C 287.70 326.45 284.29 323.35 280.03 322.43 C 266.35 324.93 253.88 331.27 241.83 337.95 C 235.92 341.68 230.44 346.21 223.79 348.62 C 210.14 352.79 194.97 350.90 182.23 358.07 C 176.32 357.47 170.89 354.13 164.69 354.30 C 172.62 348.12 180.95 341.93 185.22 332.49 C 189.15 331.42 193.06 330.27 196.91 328.95 C 193.72 321.87 187.35 316.37 185.87 308.50 C 183.84 292.80 186.11 276.83 183.80 261.14 C 183.15 256.10 182.34 250.95 183.50 245.92 C 185.23 239.31 183.01 231.67 177.72 227.27 C 168.83 219.78 155.59 222.67 146.39 215.59 C 144.12 213.45 142.49 210.79 141.02 208.07 C 157.60 200.70 175.81 207.34 193.00 203.93 C 201.93 202.75 210.27 199.10 219.02 197.14 C 240.55 194.94 261.64 189.64 282.90 185.75 C 287.19 186.21 291.75 188.18 295.86 185.78 C 308.05 180.50 321.39 179.44 334.33 177.38 C 345.22 178.09 355.41 173.48 365.21 169.39 M 339.43 208.56 C 326.21 213.45 311.86 214.73 297.84 214.36 C 296.83 220.41 296.14 226.49 295.24 232.56 C 294.59 236.72 291.22 239.62 289.38 243.24 C 286.11 249.37 283.33 255.77 279.34 261.49 C 277.41 264.08 277.67 267.45 277.16 270.50 C 282.33 269.58 287.62 268.97 292.68 267.43 C 298.96 265.49 304.83 261.17 311.69 261.93 C 317.37 261.37 321.48 266.36 325.99 268.85 C 325.23 274.33 324.51 279.83 323.82 285.32 C 326.83 286.15 329.83 286.80 332.92 287.41 C 336.55 280.79 341.27 274.50 343.09 267.07 C 343.61 259.77 349.38 254.78 352.35 248.54 C 357.96 235.42 364.42 222.25 364.51 207.60 C 356.19 207.54 347.61 206.57 339.43 208.56 M 205.05 231.19 C 203.99 237.94 208.56 243.22 211.10 248.95 C 215.88 257.06 213.61 266.66 215.92 275.42 C 215.27 288.33 206.43 299.47 207.50 312.73 C 214.48 311.92 220.92 308.89 226.17 304.23 C 232.19 298.98 240.66 296.08 244.51 288.74 C 247.66 273.92 246.70 258.54 250.03 243.73 C 252.22 236.46 250.95 228.82 249.28 221.61 C 234.54 223.21 217.77 222.45 205.05 231.19 M 267.12 315.54 C 264.82 318.96 271.06 316.31 267.12 315.54 Z" />
                    <path fill="#000"
                        d=" M 70.18 244.05 C 84.39 251.24 90.12 267.57 99.65 279.41 C 114.83 296.63 132.90 311.98 143.44 332.74 C 146.95 338.66 151.42 344.25 153.06 351.08 C 154.08 355.59 157.90 358.48 160.93 361.65 C 154.85 361.60 147.58 362.61 142.48 358.46 C 135.56 353.31 126.78 351.58 119.14 347.79 C 110.88 343.70 101.38 343.93 92.52 342.15 C 83.99 334.75 78.17 324.32 75.92 313.28 C 74.14 304.05 72.23 294.85 69.50 285.86 C 66.59 277.13 70.50 268.35 70.00 259.54 C 69.48 254.38 69.87 249.20 70.18 244.05 Z" />
                </g>
            </g>
        </g>
    </g>
    <g transform="scale(0.55,0.55)">
        <g transform="translate(0,280)">
            <g transform="translate(0,0)">
                <g transform="translate(0,0) scale(1,1)">
                    <g
                        transform="scale(2.9464285714285716,2.9464285714285716) translate(43.099999999999994,19.599999999999994)">
                        <g transform="translate(0.000000,140.000000) scale(0.100000,-0.100000)"
                            fill="#db2828" stroke="none">
                            <path
                                d="M540 1357 c0 -24 -13 -83 -30 -130 -16 -48 -30 -93 -30 -100 0 -7
        -21 -19 -47 -25 -26 -7 -61 -19 -78 -27 -16 -7 -70 -31 -120 -53 -49 -22 -110
        -43 -134 -47 l-44 -7 24 -19 c32 -25 143 -69 173 -69 13 0 29 7 37 16 15 18
        69 48 75 41 3 -2 -16 -21 -42 -42 -53 -44 -43 -66 15 -33 l36 20 -40 -44 c-22
        -24 -45 -52 -50 -62 -10 -18 -14 -17 -82 7 -39 14 -73 23 -77 20 -3 -3 8 -24
        24 -47 31 -44 52 -109 46 -143 -3 -11 2 -33 10 -48 17 -32 10 -47 -19 -43 -57
        7 -53 -41 4 -61 49 -17 91 -13 153 14 31 14 59 25 61 25 3 0 5 -11 5 -25 0
        -14 -6 -25 -12 -25 -7 0 -57 -22 -110 -49 l-97 -49 -22 24 c-27 29 -44 31 -29
        5 21 -40 11 -55 -61 -98 -65 -38 -69 -42 -50 -52 11 -7 45 -13 76 -14 53 -2
        55 -3 57 -32 1 -16 1 -39 0 -50 -1 -34 19 -75 50 -96 16 -12 31 -20 32 -18 14
        16 24 49 21 65 -2 10 -6 48 -9 84 -2 36 -7 72 -11 81 -5 12 15 31 75 74 45 31
        84 55 86 52 11 -10 -10 -67 -27 -72 -25 -8 -24 -25 1 -25 11 0 20 -5 20 -11 0
        -5 -10 -9 -22 -7 -20 3 -23 -1 -20 -27 4 -47 23 -85 41 -85 9 0 40 29 68 63
        29 34 71 84 93 110 39 47 40 48 49 25 12 -32 79 -91 96 -84 7 2 15 15 17 28 4
        23 -17 92 -35 116 -13 17 -73 42 -99 42 -20 0 -20 -1 -3 -26 20 -30 20 -30
        -61 -82 l-62 -40 -5 46 c-3 26 -3 50 0 55 18 29 236 116 313 124 74 7 85 -6
        84 -101 0 -69 -6 -96 -46 -204 l-20 -54 -63 6 c-34 3 -75 10 -90 16 l-28 11
        18 -28 c10 -16 34 -48 54 -73 58 -75 58 -75 37 -67 -16 7 -17 5 -6 -9 18 -21
        76 -10 108 19 64 59 112 213 112 356 0 69 -4 85 -27 120 -22 34 -33 41 -70 47
        -65 10 -139 -3 -264 -46 -63 -21 -115 -37 -117 -36 -1 2 2 15 7 29 7 17 20 27
        43 32 53 11 80 33 72 58 -3 12 -13 28 -22 35 -14 11 -14 12 2 12 22 0 226 207
        226 229 0 9 -4 21 -8 26 -10 14 -60 48 -100 69 -41 21 -83 11 -197 -47 -44
        -23 -83 -43 -86 -45 -3 -1 30 33 72 77 76 78 80 81 165 106 49 14 98 25 110
        25 17 0 21 5 17 20 -9 33 -31 43 -92 43 l-58 0 15 29 c7 16 15 34 16 41 1 7
        10 30 20 52 9 22 16 48 14 59 -3 23 -72 66 -105 66 -20 0 -23 -5 -23 -43z m98
        -484 c-12 -86 -109 -225 -163 -236 -20 -3 -25 -1 -21 10 3 8 6 21 6 28 0 7 19
        19 43 27 36 11 42 17 39 38 -3 32 -14 42 -46 43 -30 2 -30 1 -14 27 10 15 9
        22 -5 38 -27 30 -26 31 68 48 16 3 32 7 34 10 2 2 18 4 34 4 28 0 29 -1 25
        -37z m-222 -63 c-2 -34 -18 -59 -47 -74 -33 -16 -30 -29 9 -41 29 -8 32 -13
        32 -48 0 -34 -3 -39 -32 -49 -18 -7 -34 -12 -36 -12 -2 -1 -5 23 -7 52 -2 30
        -9 60 -15 67 -8 9 -9 28 -3 57 7 34 16 48 48 69 43 29 54 25 51 -21z" />
                            <path
                                d="M366 1241 c-29 -19 -54 -26 -95 -28 -30 -1 -57 -5 -58 -10 -7 -19 62
        -71 97 -75 34 -3 36 -1 68 61 18 36 31 68 30 72 -2 3 -21 -5 -42 -20z" />
                        </g>
                    </g>
                </g>
            </g>
        </g>
    </g>
</svg>