<svg xmlns="http://www.w3.org/2000/svg" width="302" height="445" version="1.1">
    <polygon points="1,50 1,25 301,25 301,50"
        style="fill:rgb(235,235,235);stroke:rgb(71,175,80);stroke-width:1" />
    <polygon points="1,25 1,1 301,1 301,25"
        style="fill:rgb(71,175,80);;stroke:rgb(71,175,80);stroke-width:1" />
    <rect width="300" height="395" x="1" y="50"
        style="fill:rgb(255,255,255);stroke-width:1;stroke:rgb(71,175,80)" />
    <g transform="scale(0.55,0.55)">
        <g transform="translate(0,150)">
            <g transform="translate(0,0)">
                <g transform="translate(0,0) scale(1,1)">
                    <g
                        transform="scale(2.9464285714285716,2.9464285714285716) translate(19.599999999999994,20.599999999999994)">
                        <g transform="translate(0.000000,138.000000) scale(0.100000,-0.100000)"
                            fill="#000" stroke="none">
                            <path
                                d="M890 1332 c-60 -29 -91 -54 -86 -69 4 -8 1 -11 -5 -7 -13 8 -2 -35
            12 -50 5 -6 9 -71 9 -145 0 -75 5 -165 10 -200 7 -51 6 -68 -6 -85 -7 -11 -14
            -16 -14 -12 0 5 -10 -2 -22 -16 -13 -13 -34 -32 -48 -41 -14 -9 -55 -38 -92
            -66 -37 -28 -65 -44 -62 -37 8 21 10 276 2 276 -5 0 -8 6 -8 13 0 18 -45 61
            -120 116 -86 63 -151 97 -135 71 3 -5 1 -10 -4 -10 -10 0 -9 -100 2 -117 3 -4
            6 -26 8 -48 2 -22 7 -43 12 -46 5 -4 10 -26 11 -50 1 -50 16 -46 -137 -33 -64
            6 -81 4 -95 -9 -9 -9 -27 -25 -39 -37 -13 -11 -23 -25 -23 -30 0 -6 23 -24 51
            -42 l52 -31 -6 -81 c-4 -45 -13 -114 -22 -155 -14 -66 -21 -79 -61 -117 l-46
            -42 41 -41 c23 -23 41 -45 41 -49 0 -5 17 -28 38 -51 42 -47 97 -65 162 -54
            41 7 92 57 83 81 -4 9 -2 13 4 9 5 -3 20 12 34 34 13 22 31 48 39 57 14 14 13
            15 -7 10 -16 -4 -23 -2 -23 8 0 8 -6 14 -12 14 -7 0 -5 5 5 11 9 5 17 17 17
            25 0 8 4 13 9 9 6 -3 21 11 34 30 16 24 27 32 30 23 3 -7 6 -4 6 8 1 11 10 29
            22 40 12 10 30 38 41 62 29 61 236 268 252 251 8 -9 25 -83 20 -90 -8 -14 22
            -116 50 -165 14 -26 26 -54 26 -63 0 -9 13 -28 28 -42 37 -36 178 -68 289 -65
            88 1 103 7 83 31 -9 11 -9 15 -1 15 7 0 9 4 6 10 -3 5 -1 19 5 30 8 14 7 28
            -4 53 -11 28 -24 37 -77 56 -35 12 -91 25 -124 27 -73 6 -135 21 -135 34 0 6
            -7 10 -15 10 -8 0 -15 5 -15 10 0 6 -8 18 -18 28 -19 19 -39 83 -44 137 -3 28
            1 31 57 55 45 18 79 25 136 25 58 1 83 5 105 20 16 11 32 18 36 17 11 -3 33
            49 33 78 0 22 -7 26 -55 37 -54 13 -193 16 -186 4 2 -3 -2 -12 -10 -18 -8 -8
            -15 -9 -19 -3 -10 16 -24 2 -18 -19 3 -14 -8 -27 -42 -50 -26 -18 -49 -30 -52
            -28 -2 3 1 33 7 68 5 35 10 87 10 114 0 67 30 119 113 194 33 30 19 62 -50
            109 -36 26 -46 26 -93 4z m-80 -596 c0 -2 -8 -10 -17 -17 -16 -13 -17 -12 -4
            4 13 16 21 21 21 13z m-440 -131 c0 -7 3 -27 6 -44 6 -28 4 -31 -12 -25 -16 6
            -16 4 4 -15 12 -12 22 -26 22 -32 0 -6 4 -8 9 -5 5 3 8 -2 7 -11 -1 -19 -180
            -167 -214 -177 -18 -6 -23 -2 -30 26 -10 39 -5 93 13 128 7 14 18 51 25 83 14
            61 32 75 84 65 16 -3 23 -1 20 7 -3 7 9 11 31 12 22 1 35 -4 35 -12z" />
                        </g>
                    </g>
                </g>
            </g>
        </g>
    </g>
</svg>