<svg xmlns="http://www.w3.org/2000/svg" width="302" height="445" version="1.1">
    <polygon points="1,50 1,25 301,25 301,50"
        style="fill:rgb(235,235,235);stroke:rgb(71,175,80);stroke-width:1" />
    <polygon points="1,25 1,1 301,1 301,25"
        style="fill:rgb(71,175,80);;stroke:rgb(71,175,80);stroke-width:1" />
    <rect width="300" height="395" x="1" y="50"
        style="fill:rgb(255,255,255);stroke-width:1;stroke:rgb(71,175,80)" />
    <g transform="scale(0.8,0.8)">
        <g transform=" translate(105,90)">
            <g transform="translate(0,0)">
                <g transform="translate(0,0) scale(1,1)">
                    <g
                        transform="scale(3,3)">
                        <g transform="translate(0.000000,140.000000) scale(0.100000,-0.100000)"
                            fill="#db2828" stroke="none">
                            <path
                                d="M350 1355 l23 -38 -16 -128 c-16 -124 -32 -188 -43 -176 -6 5 -76
            -69 -122 -128 -13 -17 -20 -24 -16 -16 4 9 3 12 -4 7 -6 -4 -8 -14 -5 -23 4
            -10 2 -14 -4 -10 -6 4 -14 -1 -18 -11 -5 -12 -16 10 -37 72 -16 49 -38 101
            -49 114 -10 14 -19 31 -19 38 0 19 -16 18 -24 -2 -11 -28 -6 -137 9 -208 15
            -70 83 -226 99 -226 17 0 46 43 47 69 1 32 17 76 18 49 1 -23 31 -38 75 -38
            l36 0 0 -107 c0 -149 30 -340 74 -468 1 -5 9 -31 16 -57 7 -27 16 -48 22 -48
            5 0 5 7 -1 18 -5 10 -10 94 -11 187 0 94 -2 246 -3 338 -2 186 -4 180 66 191
            57 9 97 35 97 63 0 21 -5 23 -47 25 -67 2 -71 2 -80 12 -5 5 -2 6 6 1 10 -6
            12 -4 7 4 -5 8 -12 9 -20 2 -8 -7 -12 -5 -13 8 -1 11 15 30 39 47 97 69 118
            114 72 151 -17 13 -43 23 -61 23 -37 0 -37 -1 -22 90 12 76 4 152 -19 180 -10
            11 -35 23 -56 27 l-40 6 24 -38z m90 -345 c-6 -11 -12 -20 -14 -20 -3 0 -1 23
            3 38 1 1 6 2 11 2 7 0 7 -6 0 -20z m-125 -102 c-4 -35 -7 -74 -6 -87 1 -25
            -13 -41 -38 -41 -10 0 -7 8 9 25 13 14 20 25 16 25 -10 0 -57 -30 -85 -54
            l-23 -21 7 25 c4 14 14 39 23 55 8 17 13 30 11 30 -2 0 2 7 8 15 57 68 77 90
            81 90 3 0 1 -28 -3 -62z" />
                        </g>
                    </g>
                </g>
            </g>
        </g>
    </g>
</svg>