<svg xmlns="http://www.w3.org/2000/svg" width="302" height="445" version="1.1">
    <polygon points="1,50 1,25 301,25 301,50"
        style="fill:rgb(235,235,235);stroke:rgb(71,175,80);stroke-width:1" />
    <polygon points="1,25 1,1 301,1 301,25"
        style="fill:rgb(71,175,80);;stroke:rgb(71,175,80);stroke-width:1" />
    <rect width="300" height="395" x="1" y="50"
        style="fill:rgb(255,255,255);stroke-width:1;stroke:rgb(71,175,80)" />
    <g transform="scale(0.65,0.65)">
        <g transform="translate(30,560)">
            <g transform="translate(0,0)">
                <g transform="translate(0,0) scale(1,1)">
                    <g
                        transform="scale(2.9464285714285716,2.9464285714285716)">
                        <g transform=" scale(0.100000,-0.100000)"
                            fill="#47af50" stroke="none">
                            <path
                                d="M858 1293 c-10 -2 -18 -9 -18 -14 0 -5 -20 -19 -45 -31 -60 -29 -57
            -42 6 -33 l52 7 -7 -28 c-8 -33 -42 -84 -86 -131 -25 -27 -36 -32 -63 -28
            l-32 5 28 -11 28 -11 -41 -35 c-29 -25 -38 -38 -29 -44 12 -7 36 0 96 29 37
            18 36 18 148 -78 157 -134 203 -169 273 -206 72 -37 74 -37 102 -21 15 9 33
            17 40 17 6 0 18 7 26 15 9 8 27 15 40 15 19 0 25 5 22 18 -2 13 -29 24 -103
            43 -55 14 -142 44 -193 66 -91 41 -292 159 -292 173 0 3 12 17 26 31 29 26
            104 135 104 150 0 5 5 9 10 9 6 0 10 6 10 14 0 8 7 17 16 20 10 4 14 15 12 33
            -3 27 -6 28 -58 30 -30 1 -63 -1 -72 -4z" />
                            <path
                                d="M508 1183 c-16 -2 -28 -8 -28 -12 0 -9 -130 -71 -151 -71 -10 -1 -8
            -5 6 -15 20 -16 82 -13 117 6 9 5 24 9 32 9 14 0 13 -7 -5 -52 -32 -84 -125
            -253 -171 -315 -47 -61 -151 -153 -203 -177 -18 -9 -47 -16 -64 -16 -22 0 -31
            -5 -31 -16 0 -14 8 -16 56 -11 30 3 68 14 82 23 15 10 29 17 32 17 3 -1 7 2
            10 6 3 3 32 29 64 56 33 28 76 70 95 96 l36 45 25 -23 c15 -14 37 -23 57 -23
            39 0 40 -3 11 -48 -23 -33 -121 -92 -154 -92 -9 0 -18 9 -21 20 -4 16 -11 19
            -27 14 -36 -10 -48 -34 -31 -58 8 -12 19 -31 25 -43 5 -12 20 -25 32 -28 29
            -6 68 -3 68 6 0 4 7 10 16 13 19 7 -24 -56 -61 -89 -19 -17 -21 -25 -13 -61 6
            -30 15 -43 30 -47 29 -8 47 4 88 57 34 44 66 66 95 66 29 0 11 -138 -28 -218
            l-21 -44 -58 4 c-56 3 -57 3 -40 -17 29 -34 42 -63 42 -93 0 -16 6 -29 13 -30
            6 -1 26 -4 42 -8 27 -5 34 -1 61 38 52 72 83 194 81 313 -2 79 -2 79 -37 103
            -22 15 -45 22 -62 19 -16 -2 -28 -2 -28 0 0 9 100 103 109 103 17 0 13 57 -5
            64 -20 8 -12 36 32 103 41 61 45 102 12 104 -103 6 -128 3 -128 -11 0 -8 -22
            -27 -49 -42 -53 -31 -69 -35 -54 -15 23 29 153 298 153 317 0 5 4 10 10 12 5
            2 12 18 16 36 6 30 5 32 -22 31 -16 -1 -41 -4 -56 -6z" />
                            <path
                                d="M218 930 c12 -12 22 -27 22 -35 0 -35 105 -64 132 -37 16 16 -25 51
            -84 71 -81 27 -99 27 -70 1z" />
                            <path
                                d="M780 816 c0 -88 -20 -157 -53 -185 -23 -19 -32 -76 -17 -111 15 -37
            32 -34 97 16 25 19 49 34 55 34 8 0 9 -29 4 -92 -3 -50 -8 -93 -10 -95 -2 -3
            -21 0 -43 6 -45 13 -113 14 -113 3 0 -4 29 -22 65 -40 36 -17 65 -36 65 -41 0
            -18 -102 -103 -150 -125 l-50 -23 29 -13 c63 -26 179 23 222 94 l19 31 93 -96
            c97 -101 126 -120 148 -95 36 40 36 40 9 84 -14 23 -29 39 -33 36 -4 -4 -7 0
            -7 9 0 20 -104 99 -166 126 l-44 20 0 93 c0 118 10 139 74 155 45 11 65 25 66
            46 0 4 -7 7 -15 7 -8 0 -15 5 -15 10 0 17 -87 11 -138 -9 l-50 -20 -4 112 c-3
            62 -9 120 -13 130 -16 37 -25 13 -25 -67z" />
                        </g>
                    </g>
                </g>
            </g>
        </g>
    </g>
</svg>