<svg xmlns="http://www.w3.org/2000/svg" width="302" height="445" version="1.1">
    <polygon points="1,50 1,25 301,25 301,50"
        style="fill:rgb(235,235,235);stroke:rgb(71,175,80);stroke-width:1" />
    <polygon points="1,25 1,1 301,1 301,25"
        style="fill:rgb(71,175,80);;stroke:rgb(71,175,80);stroke-width:1" />
    <rect width="300" height="395" x="1" y="50"
        style="fill:rgb(255,255,255);stroke-width:1;stroke:rgb(71,175,80)" />
    <g transform="scale(0.38,0.38)">
        <g transform="translate(100,80)">
            <g transform="translate(0,0)">
                <g transform="translate(0,0) scale(1,1)">
                    <g
                        transform="scale(2.9464285714285716,2.9464285714285716) translate(19.599999999999994,41.099999999999994)">
                        <g transform="translate(0.000000,97.000000) scale(0.100000,-0.100000)"
                            fill="#000" stroke="none">
                            <path
                                d="M731 952 c-24 -2 -50 -9 -57 -17 -11 -11 -8 -14 19 -19 18 -4 49 -23
            71 -46 34 -34 40 -47 44 -93 3 -35 -2 -75 -14 -114 l-18 -61 -65 -27 c-228
            -94 -333 -128 -432 -139 -85 -10 -104 -2 -128 54 -12 27 -21 56 -21 64 0 23
            -11 20 -51 -16 -54 -50 -60 -61 -50 -96 7 -21 6 -32 -2 -36 -9 -3 -8 -5 1 -5
            6 -1 12 -12 12 -25 0 -16 19 -45 51 -80 48 -52 55 -56 96 -56 35 0 49 6 68 26
            14 15 37 34 52 42 46 24 67 36 93 54 14 9 37 20 52 23 l26 7 -10 -44 c-18 -81
            -57 -164 -107 -231 -21 -29 -42 -62 -45 -74 -7 -22 -6 -22 26 -10 34 14 42 14
            68 5 38 -15 153 -31 147 -21 -2 5 7 19 21 33 13 14 21 18 18 10 -4 -8 0 -6 8
            4 9 11 16 24 16 29 0 4 6 5 13 1 6 -4 9 -4 5 1 -4 4 -1 19 6 34 23 46 38 130
            32 175 -7 44 -52 106 -86 118 -8 3 -13 8 -10 10 10 10 203 98 229 105 14 3 31
            9 36 13 24 19 124 40 184 40 36 0 97 -7 136 -15 87 -19 109 -19 125 -1 6 8 17
            13 24 10 7 -3 26 8 42 24 l31 29 -32 22 c-18 12 -49 24 -69 28 -20 3 -36 10
            -36 15 0 5 -4 7 -9 4 -5 -4 -22 -1 -38 6 -15 6 -31 11 -35 10 -5 -1 -8 2 -8 6
            0 4 -16 8 -35 8 -19 0 -35 -3 -35 -6 0 -16 -44 -51 -57 -46 -8 3 -12 2 -9 -3
            6 -9 -41 -21 -83 -21 -19 0 -22 3 -12 9 7 5 10 14 7 20 -4 6 -1 11 8 11 8 0
            18 4 21 10 4 6 -1 7 -12 4 -17 -5 -17 -5 0 9 9 8 17 21 17 30 0 8 5 17 12 19
            6 2 13 24 15 49 5 52 -5 63 -82 105 -50 26 -94 32 -184 26z" />
                            <path
                                d="M970 403 c-8 -3 -21 -12 -28 -20 -11 -11 -9 -13 14 -13 16 0 36 -10
            50 -25 13 -14 27 -25 31 -25 4 0 22 -24 40 -52 23 -37 30 -59 26 -78 -4 -22 3
            -35 40 -73 38 -38 47 -43 52 -29 6 15 8 14 16 -5 11 -29 25 -29 40 0 l12 22
            -24 -20 -24 -19 23 24 23 25 20 -24 c17 -21 24 -20 20 2 0 4 5 7 13 7 9 0 13
            7 11 19 -2 10 4 29 13 42 25 36 25 62 -2 98 -34 45 -131 119 -174 131 -47 13
            -172 22 -192 13z" />
                        </g>
                    </g>
                </g>
            </g>
        </g>
    </g>
    <g transform="scale(0.55,0.55)">
        <g transform="translate(0,260)">
            <g transform="translate(0,0)">
                <g transform="translate(0,0) scale(1,1)">
                    <g
                        transform="scale(2.9464285714285716,2.9464285714285716) translate(43.099999999999994,19.599999999999994)">
                        <g transform="translate(0.000000,140.000000) scale(0.100000,-0.100000)"
                            fill="#db2828" stroke="none">
                            <path
                                d="M540 1357 c0 -24 -13 -83 -30 -130 -16 -48 -30 -93 -30 -100 0 -7
        -21 -19 -47 -25 -26 -7 -61 -19 -78 -27 -16 -7 -70 -31 -120 -53 -49 -22 -110
        -43 -134 -47 l-44 -7 24 -19 c32 -25 143 -69 173 -69 13 0 29 7 37 16 15 18
        69 48 75 41 3 -2 -16 -21 -42 -42 -53 -44 -43 -66 15 -33 l36 20 -40 -44 c-22
        -24 -45 -52 -50 -62 -10 -18 -14 -17 -82 7 -39 14 -73 23 -77 20 -3 -3 8 -24
        24 -47 31 -44 52 -109 46 -143 -3 -11 2 -33 10 -48 17 -32 10 -47 -19 -43 -57
        7 -53 -41 4 -61 49 -17 91 -13 153 14 31 14 59 25 61 25 3 0 5 -11 5 -25 0
        -14 -6 -25 -12 -25 -7 0 -57 -22 -110 -49 l-97 -49 -22 24 c-27 29 -44 31 -29
        5 21 -40 11 -55 -61 -98 -65 -38 -69 -42 -50 -52 11 -7 45 -13 76 -14 53 -2
        55 -3 57 -32 1 -16 1 -39 0 -50 -1 -34 19 -75 50 -96 16 -12 31 -20 32 -18 14
        16 24 49 21 65 -2 10 -6 48 -9 84 -2 36 -7 72 -11 81 -5 12 15 31 75 74 45 31
        84 55 86 52 11 -10 -10 -67 -27 -72 -25 -8 -24 -25 1 -25 11 0 20 -5 20 -11 0
        -5 -10 -9 -22 -7 -20 3 -23 -1 -20 -27 4 -47 23 -85 41 -85 9 0 40 29 68 63
        29 34 71 84 93 110 39 47 40 48 49 25 12 -32 79 -91 96 -84 7 2 15 15 17 28 4
        23 -17 92 -35 116 -13 17 -73 42 -99 42 -20 0 -20 -1 -3 -26 20 -30 20 -30
        -61 -82 l-62 -40 -5 46 c-3 26 -3 50 0 55 18 29 236 116 313 124 74 7 85 -6
        84 -101 0 -69 -6 -96 -46 -204 l-20 -54 -63 6 c-34 3 -75 10 -90 16 l-28 11
        18 -28 c10 -16 34 -48 54 -73 58 -75 58 -75 37 -67 -16 7 -17 5 -6 -9 18 -21
        76 -10 108 19 64 59 112 213 112 356 0 69 -4 85 -27 120 -22 34 -33 41 -70 47
        -65 10 -139 -3 -264 -46 -63 -21 -115 -37 -117 -36 -1 2 2 15 7 29 7 17 20 27
        43 32 53 11 80 33 72 58 -3 12 -13 28 -22 35 -14 11 -14 12 2 12 22 0 226 207
        226 229 0 9 -4 21 -8 26 -10 14 -60 48 -100 69 -41 21 -83 11 -197 -47 -44
        -23 -83 -43 -86 -45 -3 -1 30 33 72 77 76 78 80 81 165 106 49 14 98 25 110
        25 17 0 21 5 17 20 -9 33 -31 43 -92 43 l-58 0 15 29 c7 16 15 34 16 41 1 7
        10 30 20 52 9 22 16 48 14 59 -3 23 -72 66 -105 66 -20 0 -23 -5 -23 -43z m98
        -484 c-12 -86 -109 -225 -163 -236 -20 -3 -25 -1 -21 10 3 8 6 21 6 28 0 7 19
        19 43 27 36 11 42 17 39 38 -3 32 -14 42 -46 43 -30 2 -30 1 -14 27 10 15 9
        22 -5 38 -27 30 -26 31 68 48 16 3 32 7 34 10 2 2 18 4 34 4 28 0 29 -1 25
        -37z m-222 -63 c-2 -34 -18 -59 -47 -74 -33 -16 -30 -29 9 -41 29 -8 32 -13
        32 -48 0 -34 -3 -39 -32 -49 -18 -7 -34 -12 -36 -12 -2 -1 -5 23 -7 52 -2 30
        -9 60 -15 67 -8 9 -9 28 -3 57 7 34 16 48 48 69 43 29 54 25 51 -21z" />
                            <path
                                d="M366 1241 c-29 -19 -54 -26 -95 -28 -30 -1 -57 -5 -58 -10 -7 -19 62
        -71 97 -75 34 -3 36 -1 68 61 18 36 31 68 30 72 -2 3 -21 -5 -42 -20z" />
                        </g>
                    </g>
                </g>
            </g>
        </g>
    </g>
</svg>