<svg xmlns="http://www.w3.org/2000/svg" width="302" height="445" version="1.1">
    <polygon points="1,50 1,25 301,25 301,50"
        style="fill:rgb(235,235,235);stroke:rgb(71,175,80);stroke-width:1" />
    <polygon points="1,25 1,1 301,1 301,25"
        style="fill:rgb(71,175,80);;stroke:rgb(71,175,80);stroke-width:1" />
    <rect width="300" height="395" x="1" y="50"
        style="fill:rgb(255,255,255);stroke-width:1;stroke:rgb(71,175,80)" />
    <g transform="scale(0.38,0.28)">
        <g transform="translate(120,160) scale(1,1)">
            <g
                transform="scale(2.9464285714285716,2.9464285714285716) translate(22.599999999999994,19.599999999999994)">
                <g transform="translate(0.000000,140.000000) scale(0.100000,-0.100000)"
                    fill="#000" stroke="none">
                    <path
                        d="M436 1344 c-5 -12 -10 -13 -27 -3 -20 10 -21 9 -16 -11 5 -19 2 -21
            -17 -18 l-23 5 3 -168 c4 -178 5 -191 17 -200 4 -3 10 -55 13 -115 3 -60 14
            -152 25 -206 23 -116 23 -114 3 -97 -15 12 -16 11 -10 -8 6 -18 0 -26 -36 -48
            -24 -15 -62 -40 -85 -56 -23 -16 -44 -29 -47 -29 -4 0 -46 -26 -94 -57 -48
            -32 -93 -60 -101 -64 -22 -9 225 -52 304 -53 66 -1 74 1 114 33 l43 34 31 -18
            c18 -10 62 -42 98 -72 36 -29 71 -53 78 -53 6 0 11 -4 11 -8 0 -9 59 -32 83
            -32 9 0 17 -5 17 -11 0 -5 4 -8 8 -5 8 4 84 -18 105 -31 4 -3 47 -6 95 -8 48
            -1 79 0 69 4 -14 5 -12 9 14 18 26 10 30 10 25 -3 -4 -11 -1 -12 12 -6 9 5 23
            7 30 5 6 -3 12 0 12 7 0 6 5 8 10 5 17 -11 40 3 34 19 -3 8 -14 18 -25 21 -11
            4 -17 11 -14 16 8 12 52 12 60 -1 4 -7 -3 -9 -22 -5 -26 5 -26 5 -5 -5 13 -5
            28 -8 32 -5 13 8 0 35 -15 35 -20 0 -27 17 -16 37 7 12 10 13 11 4 0 -7 6 -11
            14 -8 8 3 17 1 20 -6 2 -7 5 -4 5 6 1 9 -3 17 -8 17 -5 0 -22 5 -38 12 -15 6
            -31 11 -36 10 -4 -1 -6 2 -5 7 4 13 -41 51 -87 73 -22 10 -52 26 -68 34 -16 9
            -65 17 -114 20 -125 8 -152 19 -182 78 -23 45 -24 49 -8 61 9 6 14 14 11 17
            -3 4 -1 9 5 13 6 3 11 -1 11 -11 0 -13 5 -10 21 10 11 14 25 26 31 26 6 0 20
            8 31 18 12 10 17 11 12 3 -6 -10 -4 -12 4 -7 7 5 10 15 6 23 -4 13 -3 13 9 4
            11 -9 15 -6 20 15 4 16 12 24 20 21 8 -3 19 0 26 6 10 9 11 9 6 0 -3 -6 -2
            -14 4 -18 5 -3 10 1 10 10 0 13 7 15 32 11 22 -3 36 0 46 12 7 9 10 11 6 3 -5
            -9 -3 -12 4 -7 7 4 12 13 12 19 0 7 12 14 28 15 33 2 118 21 154 34 20 7 25
            15 23 34 -1 13 2 24 6 24 5 0 9 6 9 14 0 8 6 17 13 19 9 4 8 8 -3 16 -13 10
            -13 11 0 11 9 1 6 6 -9 14 -17 10 -20 15 -10 18 8 3 -21 5 -63 6 -42 0 -82 3
            -87 7 -6 3 -64 0 -130 -7 -89 -9 -118 -15 -114 -25 3 -7 -5 -17 -17 -21 -22
            -8 -21 -9 11 -24 l33 -16 -112 -56 c-62 -30 -113 -53 -113 -50 -4 13 -3 64 1
            64 3 0 6 30 7 67 1 36 9 83 18 105 17 44 21 173 4 183 -6 4 -8 13 -5 21 5 13
            -72 116 -98 131 -8 4 -39 30 -70 57 -59 53 -90 65 -100 40z" />
                    <path d="M372 755 c0 -16 2 -24 5 -18 2 7 2 21 0 30 -3 10 -5 5 -5 -12z" />
                    <path
                        d="M930 611 c0 -7 -4 -10 -8 -7 -5 3 -9 -2 -9 -10 0 -13 2 -13 16 0 8 9
            12 19 8 22 -4 4 -7 2 -7 -5z" />
                    <path
                        d="M789 523 c-13 -16 -12 -17 4 -4 16 13 21 21 13 21 -2 0 -10 -8 -17
            -17z" />
                </g>
            </g>
        </g>
    </g>
    <g transform="scale(0.55,0.55)">
        <g transform="translate(0,280)">
            <g transform="translate(0,0)">
                <g transform="translate(0,0) scale(1,1)">
                    <g
                        transform="scale(2.9464285714285716,2.9464285714285716) translate(43.099999999999994,19.599999999999994)">
                        <g transform="translate(0.000000,140.000000) scale(0.100000,-0.100000)"
                            fill="#db2828" stroke="none">
                            <path
                                d="M540 1357 c0 -24 -13 -83 -30 -130 -16 -48 -30 -93 -30 -100 0 -7
        -21 -19 -47 -25 -26 -7 -61 -19 -78 -27 -16 -7 -70 -31 -120 -53 -49 -22 -110
        -43 -134 -47 l-44 -7 24 -19 c32 -25 143 -69 173 -69 13 0 29 7 37 16 15 18
        69 48 75 41 3 -2 -16 -21 -42 -42 -53 -44 -43 -66 15 -33 l36 20 -40 -44 c-22
        -24 -45 -52 -50 -62 -10 -18 -14 -17 -82 7 -39 14 -73 23 -77 20 -3 -3 8 -24
        24 -47 31 -44 52 -109 46 -143 -3 -11 2 -33 10 -48 17 -32 10 -47 -19 -43 -57
        7 -53 -41 4 -61 49 -17 91 -13 153 14 31 14 59 25 61 25 3 0 5 -11 5 -25 0
        -14 -6 -25 -12 -25 -7 0 -57 -22 -110 -49 l-97 -49 -22 24 c-27 29 -44 31 -29
        5 21 -40 11 -55 -61 -98 -65 -38 -69 -42 -50 -52 11 -7 45 -13 76 -14 53 -2
        55 -3 57 -32 1 -16 1 -39 0 -50 -1 -34 19 -75 50 -96 16 -12 31 -20 32 -18 14
        16 24 49 21 65 -2 10 -6 48 -9 84 -2 36 -7 72 -11 81 -5 12 15 31 75 74 45 31
        84 55 86 52 11 -10 -10 -67 -27 -72 -25 -8 -24 -25 1 -25 11 0 20 -5 20 -11 0
        -5 -10 -9 -22 -7 -20 3 -23 -1 -20 -27 4 -47 23 -85 41 -85 9 0 40 29 68 63
        29 34 71 84 93 110 39 47 40 48 49 25 12 -32 79 -91 96 -84 7 2 15 15 17 28 4
        23 -17 92 -35 116 -13 17 -73 42 -99 42 -20 0 -20 -1 -3 -26 20 -30 20 -30
        -61 -82 l-62 -40 -5 46 c-3 26 -3 50 0 55 18 29 236 116 313 124 74 7 85 -6
        84 -101 0 -69 -6 -96 -46 -204 l-20 -54 -63 6 c-34 3 -75 10 -90 16 l-28 11
        18 -28 c10 -16 34 -48 54 -73 58 -75 58 -75 37 -67 -16 7 -17 5 -6 -9 18 -21
        76 -10 108 19 64 59 112 213 112 356 0 69 -4 85 -27 120 -22 34 -33 41 -70 47
        -65 10 -139 -3 -264 -46 -63 -21 -115 -37 -117 -36 -1 2 2 15 7 29 7 17 20 27
        43 32 53 11 80 33 72 58 -3 12 -13 28 -22 35 -14 11 -14 12 2 12 22 0 226 207
        226 229 0 9 -4 21 -8 26 -10 14 -60 48 -100 69 -41 21 -83 11 -197 -47 -44
        -23 -83 -43 -86 -45 -3 -1 30 33 72 77 76 78 80 81 165 106 49 14 98 25 110
        25 17 0 21 5 17 20 -9 33 -31 43 -92 43 l-58 0 15 29 c7 16 15 34 16 41 1 7
        10 30 20 52 9 22 16 48 14 59 -3 23 -72 66 -105 66 -20 0 -23 -5 -23 -43z m98
        -484 c-12 -86 -109 -225 -163 -236 -20 -3 -25 -1 -21 10 3 8 6 21 6 28 0 7 19
        19 43 27 36 11 42 17 39 38 -3 32 -14 42 -46 43 -30 2 -30 1 -14 27 10 15 9
        22 -5 38 -27 30 -26 31 68 48 16 3 32 7 34 10 2 2 18 4 34 4 28 0 29 -1 25
        -37z m-222 -63 c-2 -34 -18 -59 -47 -74 -33 -16 -30 -29 9 -41 29 -8 32 -13
        32 -48 0 -34 -3 -39 -32 -49 -18 -7 -34 -12 -36 -12 -2 -1 -5 23 -7 52 -2 30
        -9 60 -15 67 -8 9 -9 28 -3 57 7 34 16 48 48 69 43 29 54 25 51 -21z" />
                            <path
                                d="M366 1241 c-29 -19 -54 -26 -95 -28 -30 -1 -57 -5 -58 -10 -7 -19 62
        -71 97 -75 34 -3 36 -1 68 61 18 36 31 68 30 72 -2 3 -21 -5 -42 -20z" />
                        </g>
                    </g>
                </g>
            </g>
        </g>
    </g>
</svg>