<svg xmlns="http://www.w3.org/2000/svg" width="302" height="445" version="1.1">
    <polygon points="1,50 1,25 301,25 301,50"
        style="fill:rgb(235,235,235);stroke:rgb(71,175,80);stroke-width:1" />
    <polygon points="1,25 1,1 301,1 301,25"
        style="fill:rgb(71,175,80);;stroke:rgb(71,175,80);stroke-width:1" />
    <rect width="300" height="395" x="1" y="50"
        style="fill:rgb(255,255,255);stroke-width:1;stroke:rgb(71,175,80)" />
    <g transform="scale(0.38,0.38)">
        <g transform="translate(120,90)">
            <g transform="translate(0,0)">
                <g transform="translate(0,0) scale(1,1)">
                    <path fill="#000"
                        d=" M 264.20 182.34 C 268.10 181.33 271.91 179.67 275.97 179.53 C 280.06 179.96 283.71 182.30 287.78 182.82 C 293.97 181.94 299.97 179.46 306.32 179.77 C 320.41 183.07 330.20 194.42 341.88 202.11 C 347.08 208.38 352.60 215.44 360.74 217.87 C 364.15 218.32 367.61 217.54 371.05 217.88 C 380.70 218.86 390.18 213.44 399.68 217.13 C 406.60 219.31 413.79 218.03 420.80 217.35 C 426.04 218.81 431.66 220.27 436.17 223.46 C 440.79 229.40 446.51 234.51 450.95 240.56 C 452.28 249.57 453.20 258.71 454.52 267.72 C 451.38 274.97 443.16 277.28 436.96 281.11 C 432.76 283.19 433.24 288.98 429.85 291.95 C 426.41 297.63 419.31 296.45 413.76 297.67 C 408.47 298.08 405.40 303.56 400.01 304.01 C 395.32 306.06 390.13 305.37 385.42 303.93 C 375.22 300.37 364.20 301.08 353.59 300.57 C 351.07 297.11 349.26 292.95 345.80 290.30 C 340.18 286.78 333.38 285.69 327.69 282.36 C 325.17 277.73 323.77 272.52 320.91 268.05 C 317.56 262.27 312.00 258.27 308.22 252.81 C 300.83 243.62 298.04 231.67 290.51 222.55 C 283.62 216.02 286.35 204.23 278.49 198.60 C 272.69 194.21 268.33 188.24 264.20 182.34 Z" />
                    <path fill="#000"
                        d=" M 261.12 186.52 C 262.42 185.49 264.00 187.73 262.68 188.67 C 261.36 189.74 259.79 187.47 261.12 186.52 Z" />
                    <path fill="#000"
                        d=" M 139.04 215.57 C 152.27 216.82 163.47 226.46 168.39 238.50 C 181.12 245.41 188.06 259.47 189.05 273.55 C 190.66 279.42 186.25 284.38 182.46 288.20 C 180.32 294.37 178.38 302.61 171.07 304.53 C 170.31 309.27 169.50 314.03 169.37 318.84 C 159.75 326.22 151.83 336.84 139.32 339.43 C 131.08 341.62 124.78 348.72 116.00 349.24 C 109.01 351.93 102.18 348.48 95.78 346.04 C 87.28 342.37 81.88 334.62 76.22 327.73 C 73.37 324.22 74.40 319.44 74.27 315.29 C 78.24 308.43 82.79 301.82 87.25 295.23 C 89.50 292.18 87.75 288.31 87.34 284.97 C 88.49 284.78 89.65 284.59 90.80 284.41 C 90.37 285.91 89.92 287.40 89.46 288.90 C 90.48 289.28 91.50 289.68 92.52 290.08 C 92.11 283.82 95.10 278.43 96.94 272.71 C 104.43 273.47 111.84 268.85 114.56 261.81 C 117.80 253.91 124.66 248.55 129.76 241.99 C 133.49 233.41 135.22 224.12 139.04 215.57 Z" />
                </g>
            </g>
        </g>
    </g>
    <g transform="scale(0.55,0.55)">
        <g transform="translate(0,260)">
            <g transform="translate(0,0)">
                <g transform="translate(0,0) scale(1,1)">
                    <g
                        transform="scale(2.9464285714285716,2.9464285714285716) translate(43.099999999999994,19.599999999999994)">
                        <g transform="translate(0.000000,140.000000) scale(0.100000,-0.100000)"
                            fill="#db2828" stroke="none">
                            <path
                                d="M540 1357 c0 -24 -13 -83 -30 -130 -16 -48 -30 -93 -30 -100 0 -7
        -21 -19 -47 -25 -26 -7 -61 -19 -78 -27 -16 -7 -70 -31 -120 -53 -49 -22 -110
        -43 -134 -47 l-44 -7 24 -19 c32 -25 143 -69 173 -69 13 0 29 7 37 16 15 18
        69 48 75 41 3 -2 -16 -21 -42 -42 -53 -44 -43 -66 15 -33 l36 20 -40 -44 c-22
        -24 -45 -52 -50 -62 -10 -18 -14 -17 -82 7 -39 14 -73 23 -77 20 -3 -3 8 -24
        24 -47 31 -44 52 -109 46 -143 -3 -11 2 -33 10 -48 17 -32 10 -47 -19 -43 -57
        7 -53 -41 4 -61 49 -17 91 -13 153 14 31 14 59 25 61 25 3 0 5 -11 5 -25 0
        -14 -6 -25 -12 -25 -7 0 -57 -22 -110 -49 l-97 -49 -22 24 c-27 29 -44 31 -29
        5 21 -40 11 -55 -61 -98 -65 -38 -69 -42 -50 -52 11 -7 45 -13 76 -14 53 -2
        55 -3 57 -32 1 -16 1 -39 0 -50 -1 -34 19 -75 50 -96 16 -12 31 -20 32 -18 14
        16 24 49 21 65 -2 10 -6 48 -9 84 -2 36 -7 72 -11 81 -5 12 15 31 75 74 45 31
        84 55 86 52 11 -10 -10 -67 -27 -72 -25 -8 -24 -25 1 -25 11 0 20 -5 20 -11 0
        -5 -10 -9 -22 -7 -20 3 -23 -1 -20 -27 4 -47 23 -85 41 -85 9 0 40 29 68 63
        29 34 71 84 93 110 39 47 40 48 49 25 12 -32 79 -91 96 -84 7 2 15 15 17 28 4
        23 -17 92 -35 116 -13 17 -73 42 -99 42 -20 0 -20 -1 -3 -26 20 -30 20 -30
        -61 -82 l-62 -40 -5 46 c-3 26 -3 50 0 55 18 29 236 116 313 124 74 7 85 -6
        84 -101 0 -69 -6 -96 -46 -204 l-20 -54 -63 6 c-34 3 -75 10 -90 16 l-28 11
        18 -28 c10 -16 34 -48 54 -73 58 -75 58 -75 37 -67 -16 7 -17 5 -6 -9 18 -21
        76 -10 108 19 64 59 112 213 112 356 0 69 -4 85 -27 120 -22 34 -33 41 -70 47
        -65 10 -139 -3 -264 -46 -63 -21 -115 -37 -117 -36 -1 2 2 15 7 29 7 17 20 27
        43 32 53 11 80 33 72 58 -3 12 -13 28 -22 35 -14 11 -14 12 2 12 22 0 226 207
        226 229 0 9 -4 21 -8 26 -10 14 -60 48 -100 69 -41 21 -83 11 -197 -47 -44
        -23 -83 -43 -86 -45 -3 -1 30 33 72 77 76 78 80 81 165 106 49 14 98 25 110
        25 17 0 21 5 17 20 -9 33 -31 43 -92 43 l-58 0 15 29 c7 16 15 34 16 41 1 7
        10 30 20 52 9 22 16 48 14 59 -3 23 -72 66 -105 66 -20 0 -23 -5 -23 -43z m98
        -484 c-12 -86 -109 -225 -163 -236 -20 -3 -25 -1 -21 10 3 8 6 21 6 28 0 7 19
        19 43 27 36 11 42 17 39 38 -3 32 -14 42 -46 43 -30 2 -30 1 -14 27 10 15 9
        22 -5 38 -27 30 -26 31 68 48 16 3 32 7 34 10 2 2 18 4 34 4 28 0 29 -1 25
        -37z m-222 -63 c-2 -34 -18 -59 -47 -74 -33 -16 -30 -29 9 -41 29 -8 32 -13
        32 -48 0 -34 -3 -39 -32 -49 -18 -7 -34 -12 -36 -12 -2 -1 -5 23 -7 52 -2 30
        -9 60 -15 67 -8 9 -9 28 -3 57 7 34 16 48 48 69 43 29 54 25 51 -21z" />
                            <path
                                d="M366 1241 c-29 -19 -54 -26 -95 -28 -30 -1 -57 -5 -58 -10 -7 -19 62
        -71 97 -75 34 -3 36 -1 68 61 18 36 31 68 30 72 -2 3 -21 -5 -42 -20z" />
                        </g>
                    </g>
                </g>
            </g>
        </g>
    </g>
</svg>