<svg xmlns="http://www.w3.org/2000/svg" width="302" height="445" version="1.1">
    <polygon points="1,50 1,25 301,25 301,50"
        style="fill:rgb(235,235,235);stroke:rgb(71,175,80);stroke-width:1" />
    <polygon points="1,25 1,1 301,1 301,25"
        style="fill:rgb(71,175,80);;stroke:rgb(71,175,80);stroke-width:1" />
    <rect width="300" height="395" x="1" y="50"
        style="fill:rgb(255,255,255);stroke-width:1;stroke:rgb(71,175,80)" />
    <g transform="scale(0.38,0.32)">
        <g transform="translate(120,130)">
            <g transform="translate(0,0)">
                <g transform="translate(0,0) scale(1,1)">
                    <path fill="#000"
                        d=" M 204.96 79.34 C 218.80 89.23 229.09 103.35 243.54 112.52 C 258.73 124.22 277.71 130.43 290.78 144.94 C 291.13 154.75 290.81 164.69 292.56 174.40 C 301.33 172.79 310.02 170.75 318.55 168.14 C 323.06 166.52 327.58 169.34 332.17 169.11 C 341.27 170.10 351.47 166.58 359.35 172.51 C 363.47 175.62 370.54 175.83 372.25 181.42 C 372.84 187.85 379.22 191.69 379.99 197.93 C 381.18 205.23 376.40 211.43 373.85 217.85 C 369.11 229.96 359.50 239.46 355.63 251.98 C 345.79 273.13 340.42 296.16 329.49 316.82 C 324.94 324.38 321.70 332.91 321.92 341.86 C 324.62 347.39 330.04 350.81 335.74 352.46 C 352.65 352.08 368.20 344.04 385.04 343.23 C 393.34 342.00 402.12 346.43 409.91 341.89 C 416.64 335.02 426.28 331.29 435.68 330.49 C 441.55 333.52 447.50 337.23 451.73 342.42 C 451.48 348.52 449.88 355.15 446.10 360.10 C 435.90 367.69 423.91 372.66 411.52 375.38 C 401.06 376.99 394.23 385.84 384.71 389.53 C 376.86 393.29 368.44 395.58 359.96 397.36 C 344.73 404.20 331.11 414.08 317.15 423.12 C 306.45 429.88 298.31 439.65 289.23 448.27 C 286.55 450.89 282.61 450.22 279.22 450.45 C 278.84 449.71 278.46 448.98 278.09 448.25 C 285.58 443.14 291.48 436.08 298.98 430.96 C 307.89 423.85 316.95 416.91 325.98 409.94 C 330.39 407.48 331.62 402.44 333.64 398.24 C 325.33 392.72 316.13 388.87 307.10 384.75 C 300.16 381.84 295.53 375.72 290.81 370.17 C 288.04 366.47 284.05 362.98 283.77 358.05 C 283.40 353.77 281.63 349.37 283.13 345.13 C 289.45 330.64 300.35 318.42 305.43 303.38 C 306.95 294.08 312.74 286.35 316.07 277.69 C 318.08 273.34 321.86 269.76 322.78 264.96 C 323.31 256.46 327.21 248.67 328.68 240.34 C 330.88 230.13 333.83 219.20 330.22 208.98 C 312.02 213.18 291.83 215.07 277.69 228.71 C 272.02 232.86 273.26 240.63 271.26 246.58 C 269.09 254.44 267.44 262.53 263.76 269.86 C 260.38 275.87 260.21 283.03 257.11 289.17 C 252.80 297.79 251.96 307.71 247.24 316.13 C 242.13 324.12 238.99 333.11 235.44 341.84 C 229.83 349.00 227.17 357.66 223.76 365.94 C 214.72 381.53 205.36 397.01 194.20 411.20 C 188.39 416.35 183.51 422.52 177.43 427.36 C 166.55 430.91 153.79 430.44 144.06 423.93 C 138.58 420.56 132.25 418.04 127.96 413.14 C 123.94 402.58 121.61 391.36 116.90 381.03 C 112.12 372.10 113.47 361.79 111.14 352.23 C 122.34 352.88 128.47 363.57 138.09 367.83 C 143.57 370.28 149.93 376.35 156.05 372.12 C 161.91 369.59 165.06 363.77 170.01 360.05 C 175.06 356.32 177.54 350.30 180.99 345.23 C 189.14 328.18 199.70 312.47 209.26 296.20 C 211.40 293.11 209.98 289.33 209.40 285.99 C 197.66 288.73 187.26 295.02 176.10 299.29 C 169.76 301.70 164.49 306.69 157.68 307.84 C 148.32 309.18 138.12 312.00 129.13 307.95 C 114.44 301.65 99.04 295.91 86.92 285.11 C 81.48 278.89 78.60 271.03 76.76 263.09 C 77.27 262.22 77.78 261.35 78.29 260.49 C 86.53 261.56 94.09 266.96 102.62 265.53 C 113.98 262.31 124.05 255.25 135.93 253.66 C 145.38 250.78 153.10 244.14 162.13 240.31 C 171.60 236.24 181.53 232.99 190.21 227.32 C 204.58 218.75 221.42 214.29 234.30 203.30 C 239.82 198.79 238.80 191.18 239.55 184.86 C 240.14 167.39 241.26 149.38 236.71 132.31 C 233.23 122.65 225.63 115.39 220.41 106.74 C 215.05 97.74 207.15 89.95 204.96 79.34 Z" />
                </g>
            </g>
        </g>
    </g>
    <g transform="scale(0.55,0.55)">
        <g transform="translate(0,280)">
            <g transform="translate(0,0)">
                <g transform="translate(0,0) scale(1,1)">
                    <g
                        transform="scale(2.9464285714285716,2.9464285714285716) translate(43.099999999999994,19.599999999999994)">
                        <g transform="translate(0.000000,140.000000) scale(0.100000,-0.100000)"
                            fill="#db2828" stroke="none">
                            <path
                                d="M540 1357 c0 -24 -13 -83 -30 -130 -16 -48 -30 -93 -30 -100 0 -7
        -21 -19 -47 -25 -26 -7 -61 -19 -78 -27 -16 -7 -70 -31 -120 -53 -49 -22 -110
        -43 -134 -47 l-44 -7 24 -19 c32 -25 143 -69 173 -69 13 0 29 7 37 16 15 18
        69 48 75 41 3 -2 -16 -21 -42 -42 -53 -44 -43 -66 15 -33 l36 20 -40 -44 c-22
        -24 -45 -52 -50 -62 -10 -18 -14 -17 -82 7 -39 14 -73 23 -77 20 -3 -3 8 -24
        24 -47 31 -44 52 -109 46 -143 -3 -11 2 -33 10 -48 17 -32 10 -47 -19 -43 -57
        7 -53 -41 4 -61 49 -17 91 -13 153 14 31 14 59 25 61 25 3 0 5 -11 5 -25 0
        -14 -6 -25 -12 -25 -7 0 -57 -22 -110 -49 l-97 -49 -22 24 c-27 29 -44 31 -29
        5 21 -40 11 -55 -61 -98 -65 -38 -69 -42 -50 -52 11 -7 45 -13 76 -14 53 -2
        55 -3 57 -32 1 -16 1 -39 0 -50 -1 -34 19 -75 50 -96 16 -12 31 -20 32 -18 14
        16 24 49 21 65 -2 10 -6 48 -9 84 -2 36 -7 72 -11 81 -5 12 15 31 75 74 45 31
        84 55 86 52 11 -10 -10 -67 -27 -72 -25 -8 -24 -25 1 -25 11 0 20 -5 20 -11 0
        -5 -10 -9 -22 -7 -20 3 -23 -1 -20 -27 4 -47 23 -85 41 -85 9 0 40 29 68 63
        29 34 71 84 93 110 39 47 40 48 49 25 12 -32 79 -91 96 -84 7 2 15 15 17 28 4
        23 -17 92 -35 116 -13 17 -73 42 -99 42 -20 0 -20 -1 -3 -26 20 -30 20 -30
        -61 -82 l-62 -40 -5 46 c-3 26 -3 50 0 55 18 29 236 116 313 124 74 7 85 -6
        84 -101 0 -69 -6 -96 -46 -204 l-20 -54 -63 6 c-34 3 -75 10 -90 16 l-28 11
        18 -28 c10 -16 34 -48 54 -73 58 -75 58 -75 37 -67 -16 7 -17 5 -6 -9 18 -21
        76 -10 108 19 64 59 112 213 112 356 0 69 -4 85 -27 120 -22 34 -33 41 -70 47
        -65 10 -139 -3 -264 -46 -63 -21 -115 -37 -117 -36 -1 2 2 15 7 29 7 17 20 27
        43 32 53 11 80 33 72 58 -3 12 -13 28 -22 35 -14 11 -14 12 2 12 22 0 226 207
        226 229 0 9 -4 21 -8 26 -10 14 -60 48 -100 69 -41 21 -83 11 -197 -47 -44
        -23 -83 -43 -86 -45 -3 -1 30 33 72 77 76 78 80 81 165 106 49 14 98 25 110
        25 17 0 21 5 17 20 -9 33 -31 43 -92 43 l-58 0 15 29 c7 16 15 34 16 41 1 7
        10 30 20 52 9 22 16 48 14 59 -3 23 -72 66 -105 66 -20 0 -23 -5 -23 -43z m98
        -484 c-12 -86 -109 -225 -163 -236 -20 -3 -25 -1 -21 10 3 8 6 21 6 28 0 7 19
        19 43 27 36 11 42 17 39 38 -3 32 -14 42 -46 43 -30 2 -30 1 -14 27 10 15 9
        22 -5 38 -27 30 -26 31 68 48 16 3 32 7 34 10 2 2 18 4 34 4 28 0 29 -1 25
        -37z m-222 -63 c-2 -34 -18 -59 -47 -74 -33 -16 -30 -29 9 -41 29 -8 32 -13
        32 -48 0 -34 -3 -39 -32 -49 -18 -7 -34 -12 -36 -12 -2 -1 -5 23 -7 52 -2 30
        -9 60 -15 67 -8 9 -9 28 -3 57 7 34 16 48 48 69 43 29 54 25 51 -21z" />
                            <path
                                d="M366 1241 c-29 -19 -54 -26 -95 -28 -30 -1 -57 -5 -58 -10 -7 -19 62
        -71 97 -75 34 -3 36 -1 68 61 18 36 31 68 30 72 -2 3 -21 -5 -42 -20z" />
                        </g>
                    </g>
                </g>
            </g>
        </g>
    </g>
</svg>