<svg xmlns="http://www.w3.org/2000/svg" width="2450" height="445" version="1.1">
    <g transform="scale(0.65,0.65)">
        <g transform="translate(-40,100)">
            <path fill="#000"
                d=" M 227.37 62.76 C 238.83 59.24 251.04 59.58 262.92 59.42 C 266.68 59.26 268.14 63.40 269.63 66.13 C 269.31 72.79 266.08 79.07 266.78 85.85 C 267.28 94.56 266.59 103.27 265.89 111.94 C 266.23 117.23 268.40 122.24 269.88 127.31 C 278.67 125.19 286.83 129.34 295.33 130.84 C 295.17 133.78 295.52 136.82 294.61 139.66 C 289.21 149.94 278.58 155.61 270.95 163.93 C 266.28 172.13 268.45 182.31 269.53 191.19 C 281.53 187.29 293.00 182.03 304.92 177.93 C 310.53 176.13 313.71 170.76 317.55 166.65 C 323.22 166.60 328.72 168.16 333.59 171.04 C 339.28 172.23 340.22 178.44 342.89 182.53 C 346.45 189.51 353.57 193.66 357.86 200.07 C 360.68 208.82 362.07 218.86 358.67 227.68 C 354.07 236.66 345.31 242.80 341.11 252.04 C 338.04 257.71 337.18 264.68 332.30 269.27 C 327.98 273.83 323.52 279.12 323.77 285.84 C 321.78 294.94 326.15 307.05 317.38 313.40 C 315.77 314.82 314.15 316.40 312.04 317.02 C 299.29 320.66 285.94 319.67 272.86 319.58 C 268.33 319.41 264.44 322.84 263.08 327.01 C 257.15 346.22 254.91 367.23 260.00 386.89 C 267.06 384.69 272.97 379.67 280.41 378.53 C 298.00 374.81 316.29 375.55 333.97 378.21 C 349.89 382.37 365.40 388.21 379.86 396.11 C 388.58 401.25 399.48 402.57 406.44 410.54 C 417.12 420.58 422.18 434.62 430.42 446.42 C 426.61 446.38 422.59 446.73 419.08 444.93 C 410.00 441.06 400.26 438.59 391.99 433.02 C 380.28 425.56 367.07 421.03 354.34 415.69 C 341.30 411.30 329.20 404.40 315.77 401.13 C 301.96 396.63 287.83 393.14 273.54 390.60 C 268.71 389.48 260.91 389.42 259.46 395.56 C 255.65 409.29 262.14 423.03 263.31 436.67 C 264.32 451.86 264.99 467.14 264.38 482.37 C 255.24 484.62 246.38 480.35 239.89 474.20 C 236.47 468.83 235.54 461.92 230.17 457.82 C 219.52 448.66 203.22 453.11 192.33 444.48 C 204.02 444.16 215.68 445.83 227.36 445.34 C 232.94 444.83 239.66 441.74 240.46 435.59 C 242.75 418.50 243.21 400.86 240.14 383.84 C 239.34 379.68 234.50 378.55 230.98 379.82 C 218.47 381.61 213.39 395.28 203.02 400.97 C 192.75 407.04 182.02 412.51 170.88 416.77 C 159.27 419.56 147.96 423.60 136.21 425.78 C 142.16 421.08 149.62 419.00 156.00 415.01 C 167.60 408.02 180.05 401.37 188.37 390.36 C 194.54 382.81 200.72 375.26 206.38 367.31 C 209.30 363.35 209.92 357.58 207.89 353.13 C 202.67 344.36 191.73 343.33 182.95 340.07 C 183.00 339.34 183.10 337.89 183.15 337.16 C 186.51 335.66 189.88 334.14 193.27 332.70 C 194.27 327.29 196.37 321.63 195.11 316.08 C 191.61 300.25 183.48 285.99 178.49 270.65 C 175.90 262.46 174.76 253.79 170.91 246.04 C 167.49 238.25 162.84 230.98 160.11 222.90 C 157.07 210.29 161.56 197.77 163.84 185.48 C 167.39 192.35 169.37 199.84 172.06 207.05 C 176.52 215.23 182.74 222.28 188.63 229.43 C 201.42 241.74 199.84 261.27 206.44 276.68 C 213.32 293.73 210.40 313.05 217.91 329.87 C 220.35 330.36 222.78 330.87 225.23 331.34 C 235.60 318.63 240.60 301.71 238.51 285.42 C 236.14 274.39 217.84 279.68 215.73 268.18 C 222.24 264.77 229.90 263.46 235.73 258.76 C 239.57 253.88 238.43 247.06 238.54 241.33 C 237.76 234.11 237.94 226.71 236.34 219.60 C 235.71 216.40 232.15 215.24 229.35 214.67 C 219.95 213.60 210.49 214.73 201.08 214.70 C 196.57 213.85 193.63 209.75 190.38 206.82 C 206.09 206.43 221.64 203.97 237.30 202.95 C 238.25 198.71 238.69 194.36 238.42 190.00 C 237.88 177.31 240.24 164.04 235.27 151.93 C 219.57 152.73 206.91 142.24 193.57 135.64 C 203.94 132.85 214.19 137.62 224.62 136.43 C 228.86 135.68 232.90 134.14 237.06 133.03 C 239.53 121.86 242.47 110.21 239.29 98.87 C 237.28 86.19 230.32 75.16 227.37 62.76 M 283.57 213.24 C 278.73 214.99 271.24 214.10 268.97 219.96 C 267.23 224.10 266.93 230.15 270.77 233.20 C 275.75 238.03 283.93 236.58 288.89 241.22 C 289.34 244.11 288.25 247.13 286.14 249.15 C 279.99 256.40 270.24 261.02 267.89 270.97 C 266.10 281.91 269.11 293.01 268.25 304.04 C 275.25 302.67 283.03 301.62 288.33 296.31 C 293.20 289.27 292.52 280.15 295.40 272.30 C 301.79 255.46 306.88 237.92 307.88 219.85 C 307.78 217.00 308.19 213.88 306.65 211.38 C 299.54 206.42 290.87 212.27 283.57 213.24 Z" />
        </g>
    </g>
    <g transform="translate(350, 0)">
        <g transform="scale(0.55,0.65)">
            <g transform="translate(0,100)">
                <path fill="#000"
                    d=" M 249.01 73.59 C 257.48 70.50 267.48 70.21 275.53 74.58 C 280.01 81.94 280.76 91.44 287.63 97.36 C 295.38 106.17 307.69 108.22 316.60 115.46 C 322.91 120.59 329.55 126.52 330.91 135.01 C 330.61 137.76 329.16 140.35 327.63 142.60 C 320.82 147.96 312.85 151.56 306.00 156.88 C 296.42 161.83 286.67 166.69 276.25 169.67 C 266.68 174.44 256.24 177.27 247.11 182.95 C 240.25 186.01 239.72 194.81 234.96 199.93 C 227.55 206.82 220.20 214.54 216.91 224.33 C 211.11 237.40 202.27 248.75 195.64 261.37 C 198.63 262.07 202.15 264.46 205.01 262.16 C 211.81 259.07 215.01 252.35 218.73 246.38 C 225.21 237.49 237.29 238.26 246.78 235.37 C 257.07 233.90 265.10 226.78 274.87 223.82 C 291.83 218.66 308.97 213.80 326.48 210.85 C 336.17 208.54 345.30 203.49 355.56 204.48 C 368.16 205.17 381.28 202.60 393.29 207.60 C 403.93 211.25 415.62 212.35 425.09 218.86 C 432.88 224.20 440.71 229.99 446.36 237.66 C 448.30 242.01 448.41 247.00 448.06 251.70 C 446.83 262.42 450.22 273.22 447.89 283.88 C 444.75 302.08 437.35 319.44 436.32 338.03 C 435.52 345.04 436.34 352.52 432.98 359.00 C 427.56 371.52 423.75 384.67 418.40 397.23 C 416.80 401.20 416.55 405.55 415.20 409.60 C 412.98 414.02 408.13 416.49 406.19 421.10 C 403.09 427.29 401.95 434.72 396.43 439.39 C 389.99 446.83 381.85 452.77 372.97 456.93 C 367.39 459.46 362.25 455.84 357.25 453.83 C 351.89 451.36 346.18 449.82 340.59 447.97 C 335.96 445.89 331.81 442.65 326.75 441.63 C 320.00 440.34 314.58 435.62 308.98 432.00 C 299.96 425.30 290.91 418.64 281.65 412.29 C 278.28 425.49 275.29 438.84 270.42 451.59 C 269.04 454.84 265.67 456.35 262.66 457.73 C 261.48 451.06 258.40 444.82 257.25 438.22 C 259.96 424.12 255.50 410.18 253.57 396.32 C 253.27 392.81 249.85 391.12 246.91 390.06 C 236.49 391.86 228.17 398.95 218.42 402.52 C 207.63 407.23 196.11 409.90 184.60 412.19 C 183.20 406.61 181.49 401.11 179.31 395.79 C 192.29 380.21 208.89 368.30 224.12 355.08 C 229.36 349.20 232.09 341.61 235.49 334.63 C 230.98 332.77 226.08 331.38 221.16 332.13 C 215.40 334.08 211.90 340.81 205.09 340.01 C 202.12 338.76 199.63 335.49 200.94 331.98 C 199.84 320.96 206.65 311.88 211.67 302.84 C 215.12 295.42 220.47 288.81 221.78 280.51 C 214.79 276.89 209.49 283.71 203.70 286.46 C 194.71 290.08 185.54 293.37 177.05 298.11 C 172.26 300.91 166.30 299.97 161.42 302.61 C 156.09 305.45 149.66 304.78 144.29 307.34 C 135.65 321.62 128.95 337.97 129.80 354.99 C 129.26 365.36 130.22 375.86 134.86 385.25 C 136.09 392.30 140.08 399.35 137.71 406.62 C 137.19 409.53 136.62 412.51 135.97 415.42 C 129.04 411.93 121.69 408.39 116.84 402.12 C 114.22 398.80 111.13 395.71 109.38 391.83 C 104.48 374.57 101.85 356.64 95.10 339.94 C 92.86 334.39 91.82 328.46 89.90 322.82 C 87.95 318.20 83.70 314.42 83.54 309.14 C 83.23 304.02 82.13 298.99 81.19 293.97 C 86.46 298.30 91.55 302.99 95.19 308.84 C 99.55 315.37 102.27 322.83 106.71 329.31 C 109.97 333.70 113.93 337.51 117.82 341.35 C 125.74 325.63 131.32 308.49 142.76 294.78 C 153.31 282.15 163.16 268.94 172.30 255.25 C 174.62 252.02 175.45 248.11 176.84 244.47 C 180.23 236.40 188.81 232.46 192.83 224.82 C 198.33 215.03 205.10 204.90 204.90 193.20 C 203.76 191.78 202.02 190.96 200.19 191.22 C 183.99 192.38 168.01 197.19 151.69 196.26 C 142.90 193.95 133.04 194.44 125.10 189.48 C 127.07 187.72 128.83 185.45 131.45 184.67 C 144.68 182.39 158.17 182.52 171.44 180.61 C 179.67 179.71 187.55 177.06 195.69 175.69 C 205.34 174.18 214.20 169.91 223.07 166.04 C 225.94 165.18 228.01 162.90 229.18 160.23 C 232.97 151.29 235.14 141.79 238.65 132.75 C 241.37 125.23 245.13 118.05 246.41 110.08 C 249.77 98.24 248.97 85.76 249.01 73.59 M 278.05 117.06 C 274.30 124.30 270.32 131.44 266.97 138.88 C 266.22 140.83 267.23 142.90 267.51 144.85 C 273.12 141.59 279.49 138.76 283.61 133.65 C 287.50 128.36 284.42 122.15 282.15 116.94 C 280.78 116.98 279.42 117.02 278.05 117.06 M 363.30 217.91 C 356.94 218.66 350.17 217.46 344.14 220.02 C 337.46 222.58 330.06 222.10 323.28 224.27 C 318.85 225.74 315.48 229.13 311.79 231.85 C 304.33 229.58 296.74 233.52 290.01 236.21 C 279.17 243.52 265.69 244.82 254.71 251.80 C 248.53 254.85 246.52 262.25 245.39 268.51 C 243.48 278.06 240.10 287.38 240.77 297.30 C 244.87 294.35 248.89 291.30 252.93 288.26 C 261.40 293.59 271.47 294.00 280.90 296.24 C 284.56 299.47 288.10 304.68 286.87 309.82 C 286.06 315.27 285.11 320.70 284.53 326.19 C 289.63 329.97 296.46 331.38 300.60 336.42 C 302.54 339.46 306.88 342.18 304.39 346.49 C 298.33 357.94 287.59 365.75 278.15 374.20 C 277.66 379.55 276.82 386.63 281.68 390.33 C 288.59 395.64 297.21 398.19 303.77 404.01 C 322.14 409.46 341.81 407.74 360.42 412.31 C 365.57 405.05 368.18 396.57 370.57 388.11 C 377.22 377.52 377.13 364.46 382.89 353.50 C 384.76 346.24 384.17 338.35 387.60 331.50 C 395.68 313.78 401.91 294.97 403.65 275.47 C 405.34 262.70 408.89 250.08 408.63 237.12 C 407.85 232.63 407.83 226.36 402.92 224.16 C 390.94 217.52 376.59 217.58 363.30 217.91 Z" />
                <path fill="#000"
                    d=" M 126.64 273.43 C 127.92 272.25 130.30 274.28 129.24 275.70 C 127.93 276.95 125.54 274.87 126.64 273.43 Z" />
            </g>
        </g>
    </g>
    <g transform="translate(700,0)">
        <g transform="scale(0.65,0.65)">
            <g transform="translate(-30,100)">
                <path fill="#000"
                    d=" M 270.00 121.86 C 274.78 120.20 279.39 116.83 284.67 117.34 C 291.76 119.23 297.17 124.80 301.54 130.43 C 303.01 133.96 302.30 137.96 302.43 141.71 C 280.25 141.64 258.81 148.13 237.33 152.75 C 212.52 170.25 198.18 198.05 180.15 221.72 C 176.95 230.32 173.11 238.68 168.48 246.59 C 162.13 254.88 158.29 264.71 152.36 273.29 C 148.93 284.55 143.52 295.21 141.56 306.92 C 138.61 317.61 135.76 328.40 134.66 339.47 C 134.62 343.88 133.42 348.12 132.14 352.30 C 149.88 339.90 167.59 327.39 186.15 316.24 C 199.53 308.59 213.85 302.71 227.22 295.05 C 227.11 281.53 225.55 268.10 224.10 254.69 C 222.46 247.23 220.78 239.76 220.08 232.15 C 228.66 231.26 237.60 232.59 244.74 237.63 C 241.11 253.71 243.64 270.37 240.92 286.60 C 249.25 285.42 256.80 281.55 263.95 277.34 C 272.13 274.38 280.59 272.32 288.95 269.92 C 290.86 249.96 292.20 229.90 291.45 209.84 C 302.54 213.14 308.87 223.02 314.83 232.14 C 315.24 232.80 315.37 233.52 315.22 234.29 C 313.38 243.96 309.64 253.12 307.49 262.71 C 316.35 264.79 323.45 256.92 332.08 256.44 C 344.67 254.70 357.30 253.01 369.94 251.66 C 380.97 253.89 391.78 257.08 402.73 259.66 C 409.74 262.57 416.17 266.76 422.99 270.11 C 415.59 281.97 411.83 296.36 400.75 305.69 C 394.72 310.03 391.33 316.90 385.70 321.67 C 371.36 334.37 358.01 348.35 346.93 364.01 C 344.19 367.43 347.35 371.53 348.16 375.07 C 346.81 376.47 345.45 377.85 344.10 379.25 C 346.41 380.81 348.67 382.45 350.85 384.19 C 343.15 389.09 333.69 387.67 325.03 388.37 C 298.83 388.91 272.57 392.98 247.87 401.86 C 239.72 404.31 231.09 404.56 222.90 406.88 C 216.98 407.46 210.51 410.54 204.66 408.32 C 197.34 402.99 191.66 395.78 185.33 389.35 C 198.54 383.87 213.07 386.30 226.90 384.82 C 235.43 384.42 242.51 379.06 247.76 372.75 C 249.48 370.47 249.41 367.47 249.78 364.77 C 253.53 362.99 257.16 360.94 260.54 358.52 C 264.21 353.88 266.76 348.44 268.84 342.93 C 270.29 339.43 269.40 335.53 270.40 331.94 C 277.02 317.76 283.72 303.03 284.35 287.14 C 269.44 291.08 254.57 295.56 241.14 303.31 C 240.99 315.82 240.99 328.33 240.96 340.84 C 247.19 336.60 253.89 332.93 261.43 331.75 C 259.31 337.66 255.47 342.66 252.13 347.91 C 250.26 352.08 250.76 357.01 248.95 361.23 C 246.19 364.88 242.64 367.90 240.00 371.66 C 234.56 368.04 228.76 364.23 225.91 358.06 C 223.44 353.82 225.39 348.97 225.88 344.47 C 226.48 337.77 228.39 330.87 226.71 324.19 C 225.90 320.76 224.97 317.32 224.73 313.79 C 215.99 316.68 207.25 320.15 200.10 326.11 C 189.87 334.86 180.63 344.75 169.91 352.94 C 164.47 356.99 163.61 364.30 161.34 370.27 C 159.41 379.25 153.73 386.69 149.81 394.85 C 147.40 399.38 149.94 404.62 148.92 409.43 C 147.99 410.89 146.11 413.82 145.18 415.28 C 138.02 409.60 132.91 401.25 123.96 398.06 C 117.29 394.45 108.20 391.75 105.81 383.82 C 108.96 362.89 115.05 342.51 120.15 321.99 C 126.92 307.95 130.82 292.75 137.71 278.75 C 140.56 271.04 143.96 263.53 148.59 256.71 C 151.37 252.16 150.92 245.94 155.56 242.54 C 166.29 229.98 171.27 213.53 181.70 200.71 C 186.85 195.86 193.01 191.82 196.34 185.33 C 203.22 173.25 212.31 162.66 219.86 151.03 C 216.22 149.19 212.27 148.05 208.70 146.10 C 202.82 141.71 197.93 136.17 192.69 131.07 C 193.54 130.01 194.39 128.95 195.25 127.89 C 208.38 132.50 222.51 130.29 235.98 128.74 C 241.04 128.95 244.95 125.62 249.45 124.01 C 256.26 122.97 263.20 123.07 270.00 121.86 M 314.70 279.34 C 310.71 281.00 304.57 279.70 303.15 285.02 C 299.61 296.57 300.28 309.03 296.32 320.50 C 289.60 335.33 287.35 351.98 278.94 366.10 C 276.00 369.49 272.18 372.00 268.88 375.02 C 278.86 374.55 287.99 370.78 297.08 367.11 C 302.29 364.36 309.32 367.09 313.70 362.75 C 321.82 353.84 326.60 342.62 332.05 332.03 C 335.87 324.27 340.34 316.80 343.26 308.62 C 346.58 297.21 355.29 288.04 357.09 276.11 C 343.02 276.41 328.09 273.93 314.70 279.34 Z" />
                <path fill="#000"
                    d=" M 303.16 209.28 C 304.92 209.55 306.67 209.85 308.42 210.17 C 307.36 211.59 306.28 213.00 305.18 214.39 C 304.48 212.69 303.80 211.00 303.16 209.28 Z" />
            </g>
        </g>
    </g>
    <g transform="translate(1050,0)">
        <g transform="scale(0.55,0.55)">
            <g transform="translate(0,150)">
                <g
                    transform="scale(2.9464285714285716,2.9464285714285716) translate(19.599999999999994,20.599999999999994)">
                    <g transform="translate(0.000000,138.000000) scale(0.100000,-0.100000)"
                        fill="#000" stroke="none">
                        <path
                            d="M890 1332 c-60 -29 -91 -54 -86 -69 4 -8 1 -11 -5 -7 -13 8 -2 -35
            12 -50 5 -6 9 -71 9 -145 0 -75 5 -165 10 -200 7 -51 6 -68 -6 -85 -7 -11 -14
            -16 -14 -12 0 5 -10 -2 -22 -16 -13 -13 -34 -32 -48 -41 -14 -9 -55 -38 -92
            -66 -37 -28 -65 -44 -62 -37 8 21 10 276 2 276 -5 0 -8 6 -8 13 0 18 -45 61
            -120 116 -86 63 -151 97 -135 71 3 -5 1 -10 -4 -10 -10 0 -9 -100 2 -117 3 -4
            6 -26 8 -48 2 -22 7 -43 12 -46 5 -4 10 -26 11 -50 1 -50 16 -46 -137 -33 -64
            6 -81 4 -95 -9 -9 -9 -27 -25 -39 -37 -13 -11 -23 -25 -23 -30 0 -6 23 -24 51
            -42 l52 -31 -6 -81 c-4 -45 -13 -114 -22 -155 -14 -66 -21 -79 -61 -117 l-46
            -42 41 -41 c23 -23 41 -45 41 -49 0 -5 17 -28 38 -51 42 -47 97 -65 162 -54
            41 7 92 57 83 81 -4 9 -2 13 4 9 5 -3 20 12 34 34 13 22 31 48 39 57 14 14 13
            15 -7 10 -16 -4 -23 -2 -23 8 0 8 -6 14 -12 14 -7 0 -5 5 5 11 9 5 17 17 17
            25 0 8 4 13 9 9 6 -3 21 11 34 30 16 24 27 32 30 23 3 -7 6 -4 6 8 1 11 10 29
            22 40 12 10 30 38 41 62 29 61 236 268 252 251 8 -9 25 -83 20 -90 -8 -14 22
            -116 50 -165 14 -26 26 -54 26 -63 0 -9 13 -28 28 -42 37 -36 178 -68 289 -65
            88 1 103 7 83 31 -9 11 -9 15 -1 15 7 0 9 4 6 10 -3 5 -1 19 5 30 8 14 7 28
            -4 53 -11 28 -24 37 -77 56 -35 12 -91 25 -124 27 -73 6 -135 21 -135 34 0 6
            -7 10 -15 10 -8 0 -15 5 -15 10 0 6 -8 18 -18 28 -19 19 -39 83 -44 137 -3 28
            1 31 57 55 45 18 79 25 136 25 58 1 83 5 105 20 16 11 32 18 36 17 11 -3 33
            49 33 78 0 22 -7 26 -55 37 -54 13 -193 16 -186 4 2 -3 -2 -12 -10 -18 -8 -8
            -15 -9 -19 -3 -10 16 -24 2 -18 -19 3 -14 -8 -27 -42 -50 -26 -18 -49 -30 -52
            -28 -2 3 1 33 7 68 5 35 10 87 10 114 0 67 30 119 113 194 33 30 19 62 -50
            109 -36 26 -46 26 -93 4z m-80 -596 c0 -2 -8 -10 -17 -17 -16 -13 -17 -12 -4
            4 13 16 21 21 21 13z m-440 -131 c0 -7 3 -27 6 -44 6 -28 4 -31 -12 -25 -16 6
            -16 4 4 -15 12 -12 22 -26 22 -32 0 -6 4 -8 9 -5 5 3 8 -2 7 -11 -1 -19 -180
            -167 -214 -177 -18 -6 -23 -2 -30 26 -10 39 -5 93 13 128 7 14 18 51 25 83 14
            61 32 75 84 65 16 -3 23 -1 20 7 -3 7 9 11 31 12 22 1 35 -4 35 -12z" />
                    </g>
                </g>
            </g>
        </g>
    </g>
    <g transform="translate(1400,0)">
        <g transform="scale(0.8,0.8)">
            <g transform=" translate(105,90)">
                <g transform="scale(3,3)">
                    <g transform="translate(0,140) scale(0.1,-0.1)">
                        <path
                            d="M350 1355 l23 -38 -16 -128 c-16 -124 -32 -188 -43 -176 -6 5 -76
            -69 -122 -128 -13 -17 -20 -24 -16 -16 4 9 3 12 -4 7 -6 -4 -8 -14 -5 -23 4
            -10 2 -14 -4 -10 -6 4 -14 -1 -18 -11 -5 -12 -16 10 -37 72 -16 49 -38 101
            -49 114 -10 14 -19 31 -19 38 0 19 -16 18 -24 -2 -11 -28 -6 -137 9 -208 15
            -70 83 -226 99 -226 17 0 46 43 47 69 1 32 17 76 18 49 1 -23 31 -38 75 -38
            l36 0 0 -107 c0 -149 30 -340 74 -468 1 -5 9 -31 16 -57 7 -27 16 -48 22 -48
            5 0 5 7 -1 18 -5 10 -10 94 -11 187 0 94 -2 246 -3 338 -2 186 -4 180 66 191
            57 9 97 35 97 63 0 21 -5 23 -47 25 -67 2 -71 2 -80 12 -5 5 -2 6 6 1 10 -6
            12 -4 7 4 -5 8 -12 9 -20 2 -8 -7 -12 -5 -13 8 -1 11 15 30 39 47 97 69 118
            114 72 151 -17 13 -43 23 -61 23 -37 0 -37 -1 -22 90 12 76 4 152 -19 180 -10
            11 -35 23 -56 27 l-40 6 24 -38z m90 -345 c-6 -11 -12 -20 -14 -20 -3 0 -1 23
            3 38 1 1 6 2 11 2 7 0 7 -6 0 -20z m-125 -102 c-4 -35 -7 -74 -6 -87 1 -25
            -13 -41 -38 -41 -10 0 -7 8 9 25 13 14 20 25 16 25 -10 0 -57 -30 -85 -54
            l-23 -21 7 25 c4 14 14 39 23 55 8 17 13 30 11 30 -2 0 2 7 8 15 57 68 77 90
            81 90 3 0 1 -28 -3 -62z" />
                    </g>
                </g>
            </g>
        </g>
    </g>
    <g transform="translate(1750,0)">
        <g transform="scale(0.65,0.65)">
            <g transform="translate(30,560)">
                <g transform="scale(2.9464285714285716,2.9464285714285716)">
                    <g transform="scale(0.1,-0.1)">
                        <path
                            d="M858 1293 c-10 -2 -18 -9 -18 -14 0 -5 -20 -19 -45 -31 -60 -29 -57
            -42 6 -33 l52 7 -7 -28 c-8 -33 -42 -84 -86 -131 -25 -27 -36 -32 -63 -28
            l-32 5 28 -11 28 -11 -41 -35 c-29 -25 -38 -38 -29 -44 12 -7 36 0 96 29 37
            18 36 18 148 -78 157 -134 203 -169 273 -206 72 -37 74 -37 102 -21 15 9 33
            17 40 17 6 0 18 7 26 15 9 8 27 15 40 15 19 0 25 5 22 18 -2 13 -29 24 -103
            43 -55 14 -142 44 -193 66 -91 41 -292 159 -292 173 0 3 12 17 26 31 29 26
            104 135 104 150 0 5 5 9 10 9 6 0 10 6 10 14 0 8 7 17 16 20 10 4 14 15 12 33
            -3 27 -6 28 -58 30 -30 1 -63 -1 -72 -4z" />
                        <path
                            d="M508 1183 c-16 -2 -28 -8 -28 -12 0 -9 -130 -71 -151 -71 -10 -1 -8
            -5 6 -15 20 -16 82 -13 117 6 9 5 24 9 32 9 14 0 13 -7 -5 -52 -32 -84 -125
            -253 -171 -315 -47 -61 -151 -153 -203 -177 -18 -9 -47 -16 -64 -16 -22 0 -31
            -5 -31 -16 0 -14 8 -16 56 -11 30 3 68 14 82 23 15 10 29 17 32 17 3 -1 7 2
            10 6 3 3 32 29 64 56 33 28 76 70 95 96 l36 45 25 -23 c15 -14 37 -23 57 -23
            39 0 40 -3 11 -48 -23 -33 -121 -92 -154 -92 -9 0 -18 9 -21 20 -4 16 -11 19
            -27 14 -36 -10 -48 -34 -31 -58 8 -12 19 -31 25 -43 5 -12 20 -25 32 -28 29
            -6 68 -3 68 6 0 4 7 10 16 13 19 7 -24 -56 -61 -89 -19 -17 -21 -25 -13 -61 6
            -30 15 -43 30 -47 29 -8 47 4 88 57 34 44 66 66 95 66 29 0 11 -138 -28 -218
            l-21 -44 -58 4 c-56 3 -57 3 -40 -17 29 -34 42 -63 42 -93 0 -16 6 -29 13 -30
            6 -1 26 -4 42 -8 27 -5 34 -1 61 38 52 72 83 194 81 313 -2 79 -2 79 -37 103
            -22 15 -45 22 -62 19 -16 -2 -28 -2 -28 0 0 9 100 103 109 103 17 0 13 57 -5
            64 -20 8 -12 36 32 103 41 61 45 102 12 104 -103 6 -128 3 -128 -11 0 -8 -22
            -27 -49 -42 -53 -31 -69 -35 -54 -15 23 29 153 298 153 317 0 5 4 10 10 12 5
            2 12 18 16 36 6 30 5 32 -22 31 -16 -1 -41 -4 -56 -6z" />
                        <path
                            d="M218 930 c12 -12 22 -27 22 -35 0 -35 105 -64 132 -37 16 16 -25 51
            -84 71 -81 27 -99 27 -70 1z" />
                        <path
                            d="M780 816 c0 -88 -20 -157 -53 -185 -23 -19 -32 -76 -17 -111 15 -37
            32 -34 97 16 25 19 49 34 55 34 8 0 9 -29 4 -92 -3 -50 -8 -93 -10 -95 -2 -3
            -21 0 -43 6 -45 13 -113 14 -113 3 0 -4 29 -22 65 -40 36 -17 65 -36 65 -41 0
            -18 -102 -103 -150 -125 l-50 -23 29 -13 c63 -26 179 23 222 94 l19 31 93 -96
            c97 -101 126 -120 148 -95 36 40 36 40 9 84 -14 23 -29 39 -33 36 -4 -4 -7 0
            -7 9 0 20 -104 99 -166 126 l-44 20 0 93 c0 118 10 139 74 155 45 11 65 25 66
            46 0 4 -7 7 -15 7 -8 0 -15 5 -15 10 0 17 -87 11 -138 -9 l-50 -20 -4 112 c-3
            62 -9 120 -13 130 -16 37 -25 13 -25 -67z" />
                    </g>
                </g>
            </g>
        </g>
    </g>
    <g transform="translate(2100,0)">
        <rect width="210" height="305" x="45" y="95"
            style="fill:rgb(255,255,255);stroke-width:10;stroke:rgb(0,0,0)" rx="20" ry="20" />
        <rect width="160" height="255" x="70" y="120"
            style="fill:rgb(255,255,255);stroke-width:10;stroke:rgb(0,0,0)" />
    </g>
</svg>