<?xml version="1.0" standalone="yes"?>
<svg xmlns="http://www.w3.org/2000/svg" width="976" height="502">
<path style="fill:#ffffff; stroke:none;" d="M0 0L0 502L976 502L976 0L0 0z"/>
<path style="fill:#0b0b0b; stroke:none;" d="M112 157C129.106 160.178 150.789 163.126 162.611 176.961C165.726 180.607 168.854 183.221 170 188L132 188C124.826 188 117.023 188.853 110 187.153C98.1133 184.274 86.4658 179.151 74 179.004C70.5627 178.963 66.3404 178.476 63.1481 180.009C59.3052 181.855 60.5095 185.561 60.8302 189C61.4143 195.262 61 201.715 61 208L61 282C61 287.633 61.3312 293.385 60.831 298.999C60.6042 301.545 59.6127 304.747 61.8974 306.682C65.9636 310.125 75.604 307.005 80 305.576C89.4459 302.504 98.5667 299.576 106.961 294.046C111.647 290.959 115.335 285.193 120.3 282.858C126.249 280.061 136.52 282 143 282C149.33 282 155.671 281.885 162 282.005C163.997 282.042 167.75 281.802 168.462 284.318C169.022 286.294 167.302 288.461 166.321 290C163.967 293.692 161.643 296.596 161 301C156.032 301.74 151.602 304.842 147 306.834C139.217 310.203 130.341 313.495 122 315.066C116.172 316.163 109.977 315.342 108 322C113.324 322.421 118.044 323.702 123 325.66C131.149 328.878 139.526 333.653 145.535 340.174C152.086 347.283 155.151 355.994 158.128 364.91C164.085 382.75 167.42 401.215 170 420C171.007 427.333 171.433 434.656 172.171 442C173.01 450.364 174.96 458.688 175.752 467C176.182 471.525 175.003 476.405 175 481C177.014 480.858 179.277 480.888 180.648 479.106C182.076 477.251 181.704 474.2 182.089 471.999C183.468 464.11 183.071 455.981 183.83 448C186.205 423.044 188.717 397.151 196.003 373C198.548 364.565 200.823 353.871 206.243 346.804C213.832 336.908 222.877 331.522 234 326.15C238.846 323.81 247.079 323.519 249 318C242.415 317.663 236.276 315.209 230 313.431C220.197 310.652 208.957 308.446 200.87 301.87C196.801 298.562 191.949 293.882 189.882 289.001C188.67 286.14 188.62 283.281 192.063 282.318C201.088 279.793 213.63 282 223 282C227.223 282 232.084 281.412 236 283.318C240.55 285.532 243.714 289.981 248 292.677C262.818 301.997 279.398 309.225 297 307C295.159 291.495 296 275.628 296 260C296 244.753 295.133 229.223 296.023 214.005C296.455 206.632 304.102 203.99 308.662 199.278C310.571 197.305 311.795 194.143 309.523 191.926C306.094 188.579 300.29 188.186 296.06 186.454C288.515 183.365 281.841 181.509 274 179.449C268.509 178.006 263.836 176.185 258 177.319C250.053 178.865 245.171 184.75 238 187.37C233.86 188.883 228.344 188 224 188L198 188C195.696 187.999 190.162 188.828 189.306 185.782C188.071 181.391 194.973 177.046 197.394 174.458C205.621 165.661 219.081 161.286 231 159.741C235.975 159.096 245.342 159.67 247 154C236.488 152.454 226.944 147.961 217.999 142.41C214.794 140.42 211.18 138.668 208.754 135.696C196.2 120.321 193.083 97.4202 188.451 78.8302C187.493 74.9828 187.554 70.9209 186.791 67.0394C185.299 59.4508 183.121 53.01 182.996 45C182.947 41.8297 182.705 35.6172 178.104 35.7515C176.188 35.8075 175.435 37.4754 175.148 39.1088C174.637 42.0217 175.15 45.0609 174.696 48C174.167 51.4273 172.522 54.5499 172.129 58C169.333 82.5334 163.637 108.05 151.75 129.996C146.942 138.872 137.221 144.859 128 148.421C122.63 150.495 113.9 150.985 112 157M541 134C535.874 135.796 535.683 142.873 532.526 146.985C528.084 152.773 520.67 157.837 514.001 160.656C511.818 161.578 506.492 163.321 508.176 166.726C509.412 169.226 513.68 169.37 516 170.17C522.93 172.558 529.739 175.261 536 179.133C540.746 182.068 547.281 187.971 549.821 193.004C554.048 201.378 553 214.808 553 224C529.683 224 506.292 224.999 483 225C478.298 225 461.979 223.231 462.427 231.025C462.877 238.859 478.821 236 484 236L554 236C552.83 243.53 548.973 250.59 545.04 257C542.958 260.394 542.107 264.58 539.657 267.696C537.4 270.565 534.242 272.125 531.282 274.11C523.44 279.366 514.552 284.835 505 286L505 292C510.606 293.088 514.817 296.368 519.089 300.005C531.334 310.428 536.371 321.508 539.789 337C549.402 380.571 552.492 425.549 556 470L560 470C560 448.819 562.727 428.029 564.831 407C567.212 383.207 568.971 358.135 575.665 335C580.744 317.446 589.435 297.463 609 292C608.333 283.254 596.67 282.139 590.089 278.331C578.387 271.558 572.381 261.871 566.866 250C565.512 247.087 561.94 242.217 562.332 238.877C562.602 236.58 565.252 236.641 567.005 236.488C572.014 236.049 576.975 236 582 236C600.307 236 626.298 232.381 638.381 249.92C642.287 255.59 644.987 262.37 646.82 269C647.37 270.988 647.859 275.718 650.816 275.654C653.061 275.606 653.282 271.519 653.706 269.996C655.317 264.213 656.923 257.198 660.478 252.285C669.309 240.084 684.332 234.016 699 232L699 228C685.763 227.432 668.338 222.018 661.274 209.83C659.134 206.138 657.053 200.963 655.687 196.91C654.149 192.351 654.75 189.395 650 187C647.443 194.892 644.86 204.029 640.276 211C627.871 229.868 598.044 224.825 579 223.961C573.385 223.706 568.589 222.669 563 224C562.338 218.071 563.712 212.784 564.676 207C566.552 195.742 569.593 185.644 580.004 179.046C587.102 174.548 595.071 171.9 603 169.289C604.774 168.704 610.653 168.108 610.079 165.17C609.569 162.56 599.372 159.972 597 158.406C587.364 152.045 581.113 145.909 577.171 135C568.904 112.123 566.167 86.9271 562.439 63C561.54 57.2282 561.198 50.8423 561.014 45C560.949 42.9487 561.442 39.4741 559.416 38.1366C557.603 36.9395 555.839 38.5281 555.318 40.2292C554.292 43.5752 555.276 47.5099 554.871 50.9606C554.545 53.7416 553.255 56.2243 553.054 59.0394C552.395 68.2686 550.484 76.8057 549.289 86C548.815 89.6531 549.317 93.3855 548.545 97C545.888 109.436 541.009 121.102 541 134M765 213C759.027 213.901 752.613 217.552 747 220L747 222C755.683 225.259 764.472 228.119 772.985 231.954C776.617 233.589 782.119 236.356 783.869 240.184C787.422 247.957 778.336 256.272 773 259.975C760.491 268.657 747.389 276.164 733.039 281.329C728.642 282.912 723.661 285.512 718.961 285.852C710.877 286.436 707.322 277.806 703.62 272.171C702.203 270.014 699.505 265.631 696.303 267.175C694.219 268.18 694.054 271.027 693.734 273.001C692.821 278.621 693.263 284.502 691.61 290C688.654 299.835 680.5 304.698 672 309.224C667.429 311.658 660.752 312.748 659 318C669.823 318 686.552 318.938 694.624 327.149C698.765 331.36 702.247 336.506 705.236 341.576C706.413 343.572 706.932 347.408 709.298 348.338C713.842 350.124 713.99 343.587 714.85 341C716.748 335.287 722.605 322.698 730 323.768C736.353 324.687 742.693 328.712 749 330.296C751.537 330.934 755.247 330.723 756.731 333.318C759.587 338.31 753.531 347.254 751.949 352C744.155 375.388 720.534 392.195 699 402C700.556 396.824 705.493 395.354 710 393L710 391C700.172 386.799 691.794 383.214 691 371C684.821 372.031 686.44 377.562 683.297 381.906C679.74 386.822 671.889 390.245 666 391L666 394C671.02 394.375 675.862 396.862 677.427 402.039C678.317 404.983 677.738 408.135 679.434 410.856C681.811 414.673 686.819 415.829 691 415.981C704.261 416.465 717.071 415.721 730.039 414.128C743.839 412.433 758.555 409.262 768.867 399.13C773.217 394.855 775.616 388.561 778.286 383.17C787.153 365.263 790.252 345.768 796.711 327C801.971 311.714 815.769 296.738 827.439 285.884C844.665 269.863 863.544 256.421 885 246.826C891.997 243.697 906.107 242.513 906.941 232.996C909.183 207.434 878.159 204.389 860 208.749C854.26 210.128 846.884 215.154 840.961 214.411C834.197 213.563 827.008 205.85 823.844 200.285C814.458 183.779 811.579 163.447 808.795 145C807.771 138.217 805.124 131.919 804.997 125C804.85 116.97 803.056 109.038 803.001 101C802.986 98.888 803.659 94.4659 801.412 93.1759C798.536 91.5248 796.609 95.9559 796.228 98.0046C794.838 105.491 795.629 113.381 794.196 121C790.203 142.232 789.97 164.394 782.505 185C780.419 190.759 778.001 197.199 774.271 202.09C771.405 205.847 766.567 208.563 765 213M502 117C501.479 110.4 493.415 103.177 488.522 98.8742C486.655 97.2332 484.575 95.6681 481.999 95.4776C475.738 95.0148 469.008 103.398 465.005 107.449C463.438 109.035 461.265 110.947 460.694 113.197C459.927 116.214 462.918 119.285 464.674 121.374C468.793 126.277 476.529 136.383 483.714 132.54C491.144 128.566 494.661 120.711 502 117M351 167C370.562 167.568 387.1 181.64 390 201L347 201C342.209 201.002 334.973 200.753 332.762 206.205C330.079 212.822 339.249 212 343 212C351.654 212.001 360.351 211.744 369 212.015C373.29 212.15 377.087 213.254 377.852 218.015C379.988 231.315 378 246.521 378 260L378 347C378 358 378.052 369.001 377.999 380C377.973 385.344 376.457 390.081 379 395C395.598 390.555 411.085 371.227 412.892 354C413.919 344.205 413 333.849 413 324L413 265C413 255.364 411.602 244.528 413.148 235.019C414.065 229.377 419.495 230.002 424 230C432.31 229.996 447.247 234.487 453.682 227.656C457.567 223.533 455.497 217.98 452.885 213.83C448.178 206.353 443.338 199.415 437.281 192.979C434.268 189.778 430.775 186.206 426 186.263C415.888 186.383 410.63 200.228 400 201C400.67 188.085 410.746 177.405 422.17 172.438C427.986 169.908 439.986 169.377 442 163C429.341 159.408 413.549 156.034 406.049 143.996C401.03 135.94 400.601 126.484 397 118C390.278 119.652 391.527 124.31 390.097 130C388.864 134.907 386.561 140.501 384.164 144.961C379.883 152.927 371.875 154.649 364.424 158.268C358.986 160.909 352.056 159.819 351 167M502 180C501.593 174.713 498.456 173.476 495.12 169.812C491.332 165.651 487.07 157.48 480.17 158.447C475.344 159.123 471.195 165.716 467.91 168.83C465.704 170.922 461.543 173.019 460.748 176.174C460.014 179.083 462.604 181.961 464.304 184C468.47 188.997 476.043 199.738 483.576 195.54C490.928 191.443 494.713 183.867 502 180z"/>
<path style="fill:#fdfdfd; stroke:none;" d="M172 273L172 197L120 197C114.639 197 103.912 194.962 99.3179 198.028C95.4199 200.629 97 208.989 97 213L97 255C97 258.786 95.2837 268.343 98.6034 270.972C102.605 274.142 113.097 271.754 118 272.09C135.959 273.319 153.97 273 172 273M186 272L258 272L258 197L206 197C201.487 197 191.294 195.105 187.603 198.028C183.425 201.337 186.875 212.514 186.985 217C187.431 235.2 186.151 253.781 186 272z"/>
<path style="fill:#0b0b0b; stroke:none;" d="M340 355C347.633 352.548 355.347 342.726 359.264 335.996C373.088 312.247 369 282.466 369 256C369 248.335 368.913 240.664 369.004 233C369.037 230.212 370.334 225.837 368.883 223.318C367.514 220.942 364.374 221.049 362 221.005C356.343 220.898 350.646 221.267 345 220.835C342.683 220.658 339.565 219.892 338.117 222.333C336.318 225.367 338.68 230.717 338.91 234C339.559 243.252 339 252.726 339 262L339 299C339 317.722 340 336.313 340 355M422 322L427 322C429.092 318.157 432.879 317.481 436 314.615C442.881 308.296 447.164 302.963 449.91 294C453.133 283.485 451 269.935 451 259C451 255.396 452.015 249.821 450.142 246.576C448.592 243.892 445.561 244.632 442.996 244.835C437.679 245.255 424.448 242.465 421.042 247.573C419.609 249.723 420.611 252.652 420.83 255C421.2 258.97 421 263.017 421 267C421 284.84 418.74 304.441 422 322M797 345C798.32 351.05 802.863 349.679 808 350.17C815.421 350.879 825.936 352.063 832.286 356.144C841.771 362.238 849.483 370.522 858.286 377.495C874.68 390.48 891.389 402.958 909 414.247C915.514 418.423 921.64 422.359 928.834 425.165C932.278 426.508 936.141 428.007 939.657 425.821C945.086 422.446 945 414.503 945 409C945.001 391.856 938.371 378.788 925 368.099C915.463 360.475 902.472 356.243 890.999 352.481C877.852 348.171 863.727 343.118 850 341.209C842.941 340.228 835.12 340.84 828 341.015C817.503 341.273 807.53 344.999 797 345z"/>
</svg>
